  0
SECTION
  2
HEADER
  9
$ACADVER
  1
AC1009
  9
$INSBASE
 10
0.0
 20
0.0
 30
0.0
  9
$EXTMIN
 10
0.0
 20
0.0
 30
0.0
  9
$EXTMAX
 10
0.0
 20
0.0
 30
0.0
  0
ENDSEC
  0
SECTION
  2
TABLES
  0
TABLE
  2
VPORT
 70
0
  0
ENDTAB
  0
TABLE
  2
LTYPE
 70
1
  0
LTYPE
  2
CONTINUOUS
 70
0
  3
Solid line
 72
65
 73
0
 40
0.0
  0
ENDTAB
  0
TABLE
  2
LAYER
 70
1
  0
LAYER
  2
0
 70
64
 62
7
  6
continuous
  0
ENDTAB
  0
TABLE
  2
STYLE
 70
1
  0
STYLE
  2
STANDARD
 70
0
 40
0
 41
1.0
 50
0.0
 71
0
 42
1
 3
ARIAL.TTF
 4

  0
ENDTAB
  0
TABLE
  2
VIEW
 70
0
  0
ENDTAB
  0
ENDSEC
  0
SECTION
  2
BLOCKS
  0
BLOCK
  8
0
  2
SKETCH
 70
0
 10
0.0
 20
0.0
 30
0.0
  3
SKETCH
  0
POLYLINE
  8
0
 62
7
 70
1
 66
1
 10
0.0
 20
0.0
 30
0.0
  0
VERTEX
  8
0
 10
-3.2
 20
1.38
 30
0.0
  0
VERTEX
  8
0
 10
-1.75
 20
1.38
 30
0.0
  0
VERTEX
  8
0
 10
-1.75
 20
-0.72
 30
0.0
  0
VERTEX
  8
0
 10
-3.2
 20
-0.72
 30
0.0
  0
SEQEND
  8
0
  0
POLYLINE
  8
0
 62
7
 70
1
 66
1
 10
0.0
 20
0.0
 30
0.0
  0
VERTEX
  8
0
 10
1.75
 20
1.38
 30
0.0
  0
VERTEX
  8
0
 10
3.2
 20
1.38
 30
0.0
  0
VERTEX
  8
0
 10
3.2
 20
-0.72
 30
0.0
  0
VERTEX
  8
0
 10
1.75
 20
-0.72
 30
0.0
  0
SEQEND
  8
0
  0
POLYLINE
  8
0
 62
7
 70
0
 66
1
 10
0.0
 20
0.0
 30
0.0
  0
VERTEX
  8
0
 10
-7.146647
 20
-3.42
 30
0.0
  0
VERTEX
  8
0
 10
7.982589
 20
-3.42
 30
0.0
  0
SEQEND
  8
0
  0
POLYLINE
  8
0
 62
7
 70
1
 66
1
 10
0.0
 20
0.0
 30
0.0
  0
VERTEX
  8
0
 10
-1.525
 20
1.38
 30
0.0
  0
VERTEX
  8
0
 10
-1.075
 20
1.38
 30
0.0
  0
VERTEX
  8
0
 10
-1.075
 20
-3.89103199461e-22
 30
0.0
  0
VERTEX
  8
0
 10
-1.525
 20
-7.86149893486e-22
 30
0.0
  0
SEQEND
  8
0
  0
POLYLINE
  8
0
 62
7
 70
1
 66
1
 10
0.0
 20
0.0
 30
0.0
  0
VERTEX
  8
0
 10
-0.875
 20
1.38
 30
0.0
  0
VERTEX
  8
0
 10
-0.425
 20
1.38
 30
0.0
  0
VERTEX
  8
0
 10
-0.425
 20
-3.89103199461e-22
 30
0.0
  0
VERTEX
  8
0
 10
-0.875
 20
-7.86149893486e-22
 30
0.0
  0
SEQEND
  8
0
  0
POLYLINE
  8
0
 62
7
 70
1
 66
1
 10
0.0
 20
0.0
 30
0.0
  0
VERTEX
  8
0
 10
-0.225
 20
1.38
 30
0.0
  0
VERTEX
  8
0
 10
0.225
 20
1.38
 30
0.0
  0
VERTEX
  8
0
 10
0.225
 20
0.0
 30
0.0
  0
VERTEX
  8
0
 10
-0.225
 20
7.6861061702e-32
 30
0.0
  0
SEQEND
  8
0
  0
POLYLINE
  8
0
 62
7
 70
1
 66
1
 10
0.0
 20
0.0
 30
0.0
  0
VERTEX
  8
0
 10
0.425
 20
1.38
 30
0.0
  0
VERTEX
  8
0
 10
0.875
 20
1.38
 30
0.0
  0
VERTEX
  8
0
 10
0.875
 20
0.0
 30
0.0
  0
VERTEX
  8
0
 10
0.425
 20
0.0
 30
0.0
  0
SEQEND
  8
0
  0
POLYLINE
  8
0
 62
7
 70
1
 66
1
 10
0.0
 20
0.0
 30
0.0
  0
VERTEX
  8
0
 10
1.075
 20
1.38
 30
0.0
  0
VERTEX
  8
0
 10
1.525
 20
1.38
 30
0.0
  0
VERTEX
  8
0
 10
1.525
 20
-3.89103199461e-22
 30
0.0
  0
VERTEX
  8
0
 10
1.075
 20
-7.86149893486e-22
 30
0.0
  0
SEQEND
  8
0
  0
POLYLINE
  8
0
 62
7
 70
1
 66
1
 10
0.0
 20
0.0
 30
0.0
  0
VERTEX
  8
0
 10
-4.1
 20
-1.01999999988
 30
0.0
  0
VERTEX
  8
0
 10
-1.725
 20
-1.01999999988
 30
0.0
  0
VERTEX
  8
0
 10
-1.725
 20
-2.91999999988
 30
0.0
  0
VERTEX
  8
0
 10
-4.1
 20
-2.91999999988
 30
0.0
  0
SEQEND
  8
0
  0
POLYLINE
  8
0
 62
7
 70
1
 66
1
 10
0.0
 20
0.0
 30
0.0
  0
VERTEX
  8
0
 10
-1.425
 20
-1.01999999988
 30
0.0
  0
VERTEX
  8
0
 10
-0.25
 20
-1.01999999988
 30
0.0
  0
VERTEX
  8
0
 10
-0.25
 20
-2.91999999988
 30
0.0
  0
VERTEX
  8
0
 10
-1.425
 20
-2.91999999988
 30
0.0
  0
SEQEND
  8
0
  0
POLYLINE
  8
0
 62
7
 70
1
 66
1
 10
0.0
 20
0.0
 30
0.0
  0
VERTEX
  8
0
 10
0.25
 20
-1.01999999988
 30
0.0
  0
VERTEX
  8
0
 10
1.425
 20
-1.01999999988
 30
0.0
  0
VERTEX
  8
0
 10
1.425
 20
-2.91999999988
 30
0.0
  0
VERTEX
  8
0
 10
0.25
 20
-2.91999999988
 30
0.0
  0
SEQEND
  8
0
  0
POLYLINE
  8
0
 62
7
 70
1
 66
1
 10
0.0
 20
0.0
 30
0.0
  0
VERTEX
  8
0
 10
1.725
 20
-1.01999999988
 30
0.0
  0
VERTEX
  8
0
 10
4.1
 20
-1.01999999988
 30
0.0
  0
VERTEX
  8
0
 10
4.1
 20
-2.91999999988
 30
0.0
  0
VERTEX
  8
0
 10
1.725
 20
-2.91999999988
 30
0.0
  0
SEQEND
  8
0
  0
POLYLINE
  8
0
 62
7
 70
0
 66
1
 10
0.0
 20
0.0
 30
0.0
  0
VERTEX
  8
0
 10
-6.856469
 20
-4.12
 30
0.0
  0
VERTEX
  8
0
 10
7.858905
 20
-4.12
 30
0.0
  0
SEQEND
  8
0
  0
POLYLINE
  8
0
 62
7
 70
1
 66
1
 10
0.0
 20
0.0
 30
0.0
  0
VERTEX
  8
0
 10
-3.9
 20
1.58
 30
0.0
  0
VERTEX
  8
0
 10
3.9
 20
1.58
 30
0.0
  0
VERTEX
  8
0
 10
3.9
 20
-3.42
 30
0.0
  0
VERTEX
  8
0
 10
-3.9
 20
-3.42
 30
0.0
  0
SEQEND
  8
0
  0
ENDBLK
  0
ENDSEC
  0
SECTION
  2
ENTITIES
  0
INSERT
  2
SKETCH
  8
0
 62
7
 10
0.0
 20
0.0
 30
0.0
  0
ENDSEC
  0
EOF
