M48
;DRILL file {KiCad 4.0.7-e2-6376~58~ubuntu16.04.1} date Thu May  2 01:35:08 2019
;FORMAT={-:-/ absolute / inch / decimal}
FMAT,2
INCH,TZ
T1C0.016
T2C0.018
T3C0.039
T4C0.047
T5C0.120
%
G90
G05
M72
T1
X5.775Y-4.4787
X5.9Y-4.1537
X5.975Y-4.4537
T3
X5.225Y-4.0787
X5.225Y-4.1787
X5.225Y-4.2787
X5.325Y-4.0787
X5.325Y-4.1787
X5.325Y-4.2787
X5.625Y-5.0037
X5.7234Y-5.0037
X5.8219Y-5.0037
X5.9203Y-5.0037
X6.0187Y-5.0037
X6.575Y-3.8287
X6.675Y-3.8287
T4
X6.275Y-4.7787
X7.075Y-4.7787
T5
X5.3Y-3.8287
X5.3Y-5.0537
X6.95Y-3.8037
X6.975Y-5.0537
T2
X7.0894Y-4.3136G85X7.1209Y-4.3136
G05
X7.0894Y-4.5947G85X7.1209Y-4.5947
G05
T0
M30
