G04 #@! TF.FileFunction,Soldermask,Top*
%FSLAX46Y46*%
G04 Gerber Fmt 4.6, Leading zero omitted, Abs format (unit mm)*
G04 Created by KiCad (PCBNEW 4.0.7-e2-6376~58~ubuntu16.04.1) date Thu May  2 01:35:01 2019*
%MOMM*%
%LPD*%
G01*
G04 APERTURE LIST*
%ADD10C,0.100000*%
%ADD11C,4.464000*%
%ADD12R,2.900000X4.400000*%
%ADD13R,0.908000X1.543000*%
%ADD14R,1.200000X1.300000*%
%ADD15R,2.100000X2.100000*%
%ADD16O,2.100000X2.100000*%
%ADD17R,2.000000X1.400000*%
%ADD18C,2.800000*%
%ADD19O,2.800000X2.800000*%
%ADD20R,1.300000X1.200000*%
%ADD21R,5.900000X2.400000*%
%ADD22R,2.100000X1.700000*%
%ADD23R,4.600000X2.600000*%
%ADD24O,2.300000X1.500000*%
%ADD25R,2.300000X1.800000*%
%ADD26R,1.780000X0.850000*%
%ADD27R,2.150000X2.150000*%
%ADD28C,2.150000*%
%ADD29R,2.400000X2.100000*%
G04 APERTURE END LIST*
D10*
D11*
X176530000Y-96615000D03*
X134620000Y-97250000D03*
X134620000Y-128365000D03*
D12*
X166370000Y-106900000D03*
X166370000Y-113000000D03*
D13*
X153670000Y-103473000D03*
X152400000Y-103473000D03*
X151130000Y-103473000D03*
X149860000Y-103473000D03*
X148590000Y-103473000D03*
X147320000Y-103473000D03*
X146050000Y-103473000D03*
X146050000Y-109823000D03*
X147320000Y-109823000D03*
X149860000Y-109823000D03*
X151130000Y-109823000D03*
X152400000Y-109823000D03*
X153670000Y-109823000D03*
X148590000Y-109823000D03*
D14*
X140015000Y-114157000D03*
X138115000Y-114157000D03*
X139065000Y-116157000D03*
X145095000Y-114157000D03*
X143195000Y-114157000D03*
X144145000Y-116157000D03*
X150175000Y-114157000D03*
X148275000Y-114157000D03*
X149225000Y-116157000D03*
X155255000Y-114030000D03*
X153355000Y-114030000D03*
X154305000Y-116030000D03*
X160335000Y-114157000D03*
X158435000Y-114157000D03*
X159385000Y-116157000D03*
D15*
X132715000Y-103600000D03*
D16*
X135255000Y-103600000D03*
X132715000Y-106140000D03*
X135255000Y-106140000D03*
X132715000Y-108680000D03*
X135255000Y-108680000D03*
D17*
X156845000Y-105275000D03*
X156845000Y-108275000D03*
X161290000Y-100195000D03*
X161290000Y-103195000D03*
X143510000Y-96385000D03*
X143510000Y-99385000D03*
D18*
X159385000Y-121380000D03*
D19*
X179705000Y-121380000D03*
D15*
X169545000Y-97250000D03*
D16*
X167005000Y-97250000D03*
D20*
X165370000Y-101380000D03*
X165370000Y-103280000D03*
X167370000Y-102330000D03*
D21*
X159555000Y-96615000D03*
X149055000Y-96615000D03*
D22*
X139065000Y-121860000D03*
X139065000Y-118360000D03*
X144145000Y-121860000D03*
X144145000Y-118360000D03*
X149225000Y-121860000D03*
X149225000Y-118360000D03*
X154305000Y-121860000D03*
X154305000Y-118360000D03*
D23*
X173990000Y-103640000D03*
X173990000Y-108640000D03*
D24*
X180470000Y-116705000D03*
D25*
X180470000Y-112175000D03*
D24*
X180470000Y-109565000D03*
D26*
X177800000Y-111835000D03*
X177800000Y-112485000D03*
X177800000Y-113135000D03*
X177800000Y-113785000D03*
X177800000Y-114445000D03*
D25*
X180470000Y-114085000D03*
D11*
X177165000Y-128365000D03*
D27*
X142875000Y-127095000D03*
D28*
X145375000Y-127095000D03*
X147875000Y-127095000D03*
X150375000Y-127095000D03*
X152875000Y-127095000D03*
D22*
X170180000Y-104715000D03*
X170180000Y-101215000D03*
D29*
X138970000Y-108680000D03*
X142970000Y-108680000D03*
X138970000Y-105505000D03*
X142970000Y-105505000D03*
X138970000Y-102330000D03*
X142970000Y-102330000D03*
M02*
