G04 #@! TF.FileFunction,Legend,Top*
%FSLAX46Y46*%
G04 Gerber Fmt 4.6, Leading zero omitted, Abs format (unit mm)*
G04 Created by KiCad (PCBNEW 4.0.7-e2-6376~58~ubuntu16.04.1) date Thu May  2 01:35:01 2019*
%MOMM*%
%LPD*%
G01*
G04 APERTURE LIST*
%ADD10C,0.100000*%
%ADD11C,0.300000*%
%ADD12C,0.120000*%
%ADD13C,0.150000*%
G04 APERTURE END LIST*
D10*
D11*
X179264571Y-107861714D02*
X180478857Y-107861714D01*
X180621714Y-107790286D01*
X180693143Y-107718857D01*
X180764571Y-107576000D01*
X180764571Y-107290286D01*
X180693143Y-107147428D01*
X180621714Y-107076000D01*
X180478857Y-107004571D01*
X179264571Y-107004571D01*
X180693143Y-106361714D02*
X180764571Y-106147428D01*
X180764571Y-105790285D01*
X180693143Y-105647428D01*
X180621714Y-105575999D01*
X180478857Y-105504571D01*
X180336000Y-105504571D01*
X180193143Y-105575999D01*
X180121714Y-105647428D01*
X180050286Y-105790285D01*
X179978857Y-106075999D01*
X179907429Y-106218857D01*
X179836000Y-106290285D01*
X179693143Y-106361714D01*
X179550286Y-106361714D01*
X179407429Y-106290285D01*
X179336000Y-106218857D01*
X179264571Y-106075999D01*
X179264571Y-105718857D01*
X179336000Y-105504571D01*
X179978857Y-104361714D02*
X180050286Y-104147428D01*
X180121714Y-104076000D01*
X180264571Y-104004571D01*
X180478857Y-104004571D01*
X180621714Y-104076000D01*
X180693143Y-104147428D01*
X180764571Y-104290286D01*
X180764571Y-104861714D01*
X179264571Y-104861714D01*
X179264571Y-104361714D01*
X179336000Y-104218857D01*
X179407429Y-104147428D01*
X179550286Y-104076000D01*
X179693143Y-104076000D01*
X179836000Y-104147428D01*
X179907429Y-104218857D01*
X179978857Y-104361714D01*
X179978857Y-104861714D01*
X180764571Y-102218857D02*
X179264571Y-102218857D01*
X179264571Y-101647429D01*
X179336000Y-101504571D01*
X179407429Y-101433143D01*
X179550286Y-101361714D01*
X179764571Y-101361714D01*
X179907429Y-101433143D01*
X179978857Y-101504571D01*
X180050286Y-101647429D01*
X180050286Y-102218857D01*
X180764571Y-100504571D02*
X180693143Y-100647429D01*
X180621714Y-100718857D01*
X180478857Y-100790286D01*
X180050286Y-100790286D01*
X179907429Y-100718857D01*
X179836000Y-100647429D01*
X179764571Y-100504571D01*
X179764571Y-100290286D01*
X179836000Y-100147429D01*
X179907429Y-100076000D01*
X180050286Y-100004571D01*
X180478857Y-100004571D01*
X180621714Y-100076000D01*
X180693143Y-100147429D01*
X180764571Y-100290286D01*
X180764571Y-100504571D01*
X179764571Y-99504571D02*
X180764571Y-99218857D01*
X180050286Y-98933143D01*
X180764571Y-98647428D01*
X179764571Y-98361714D01*
X180693143Y-97218857D02*
X180764571Y-97361714D01*
X180764571Y-97647428D01*
X180693143Y-97790285D01*
X180550286Y-97861714D01*
X179978857Y-97861714D01*
X179836000Y-97790285D01*
X179764571Y-97647428D01*
X179764571Y-97361714D01*
X179836000Y-97218857D01*
X179978857Y-97147428D01*
X180121714Y-97147428D01*
X180264571Y-97861714D01*
X180764571Y-96504571D02*
X179764571Y-96504571D01*
X180050286Y-96504571D02*
X179907429Y-96433143D01*
X179836000Y-96361714D01*
X179764571Y-96218857D01*
X179764571Y-96076000D01*
X131135715Y-112533571D02*
X131135715Y-111033571D01*
X132707144Y-112390714D02*
X132635715Y-112462143D01*
X132421429Y-112533571D01*
X132278572Y-112533571D01*
X132064287Y-112462143D01*
X131921429Y-112319286D01*
X131850001Y-112176429D01*
X131778572Y-111890714D01*
X131778572Y-111676429D01*
X131850001Y-111390714D01*
X131921429Y-111247857D01*
X132064287Y-111105000D01*
X132278572Y-111033571D01*
X132421429Y-111033571D01*
X132635715Y-111105000D01*
X132707144Y-111176429D01*
X133278572Y-112462143D02*
X133492858Y-112533571D01*
X133850001Y-112533571D01*
X133992858Y-112462143D01*
X134064287Y-112390714D01*
X134135715Y-112247857D01*
X134135715Y-112105000D01*
X134064287Y-111962143D01*
X133992858Y-111890714D01*
X133850001Y-111819286D01*
X133564287Y-111747857D01*
X133421429Y-111676429D01*
X133350001Y-111605000D01*
X133278572Y-111462143D01*
X133278572Y-111319286D01*
X133350001Y-111176429D01*
X133421429Y-111105000D01*
X133564287Y-111033571D01*
X133921429Y-111033571D01*
X134135715Y-111105000D01*
X134778572Y-112533571D02*
X134778572Y-111033571D01*
X135350000Y-111033571D01*
X135492858Y-111105000D01*
X135564286Y-111176429D01*
X135635715Y-111319286D01*
X135635715Y-111533571D01*
X135564286Y-111676429D01*
X135492858Y-111747857D01*
X135350000Y-111819286D01*
X134778572Y-111819286D01*
X159778572Y-125707857D02*
X160278572Y-125707857D01*
X160492858Y-126493571D02*
X159778572Y-126493571D01*
X159778572Y-124993571D01*
X160492858Y-124993571D01*
X162135715Y-126636429D02*
X161992858Y-126565000D01*
X161850001Y-126422143D01*
X161635715Y-126207857D01*
X161492858Y-126136429D01*
X161350001Y-126136429D01*
X161421429Y-126493571D02*
X161278572Y-126422143D01*
X161135715Y-126279286D01*
X161064286Y-125993571D01*
X161064286Y-125493571D01*
X161135715Y-125207857D01*
X161278572Y-125065000D01*
X161421429Y-124993571D01*
X161707143Y-124993571D01*
X161850001Y-125065000D01*
X161992858Y-125207857D01*
X162064286Y-125493571D01*
X162064286Y-125993571D01*
X161992858Y-126279286D01*
X161850001Y-126422143D01*
X161707143Y-126493571D01*
X161421429Y-126493571D01*
X163564287Y-126350714D02*
X163492858Y-126422143D01*
X163278572Y-126493571D01*
X163135715Y-126493571D01*
X162921430Y-126422143D01*
X162778572Y-126279286D01*
X162707144Y-126136429D01*
X162635715Y-125850714D01*
X162635715Y-125636429D01*
X162707144Y-125350714D01*
X162778572Y-125207857D01*
X162921430Y-125065000D01*
X163135715Y-124993571D01*
X163278572Y-124993571D01*
X163492858Y-125065000D01*
X163564287Y-125136429D01*
X164850001Y-126493571D02*
X164850001Y-125707857D01*
X164778572Y-125565000D01*
X164635715Y-125493571D01*
X164350001Y-125493571D01*
X164207144Y-125565000D01*
X164850001Y-126422143D02*
X164707144Y-126493571D01*
X164350001Y-126493571D01*
X164207144Y-126422143D01*
X164135715Y-126279286D01*
X164135715Y-126136429D01*
X164207144Y-125993571D01*
X164350001Y-125922143D01*
X164707144Y-125922143D01*
X164850001Y-125850714D01*
X165564287Y-126493571D02*
X165564287Y-125493571D01*
X165564287Y-125636429D02*
X165635715Y-125565000D01*
X165778573Y-125493571D01*
X165992858Y-125493571D01*
X166135715Y-125565000D01*
X166207144Y-125707857D01*
X166207144Y-126493571D01*
X166207144Y-125707857D02*
X166278573Y-125565000D01*
X166421430Y-125493571D01*
X166635715Y-125493571D01*
X166778573Y-125565000D01*
X166850001Y-125707857D01*
X166850001Y-126493571D01*
X168135715Y-126422143D02*
X167992858Y-126493571D01*
X167707144Y-126493571D01*
X167564287Y-126422143D01*
X167492858Y-126279286D01*
X167492858Y-125707857D01*
X167564287Y-125565000D01*
X167707144Y-125493571D01*
X167992858Y-125493571D01*
X168135715Y-125565000D01*
X168207144Y-125707857D01*
X168207144Y-125850714D01*
X167492858Y-125993571D01*
X168850001Y-126493571D02*
X168850001Y-125493571D01*
X168850001Y-125779286D02*
X168921429Y-125636429D01*
X168992858Y-125565000D01*
X169135715Y-125493571D01*
X169278572Y-125493571D01*
X170421429Y-126493571D02*
X170421429Y-125707857D01*
X170350000Y-125565000D01*
X170207143Y-125493571D01*
X169921429Y-125493571D01*
X169778572Y-125565000D01*
X170421429Y-126422143D02*
X170278572Y-126493571D01*
X169921429Y-126493571D01*
X169778572Y-126422143D01*
X169707143Y-126279286D01*
X169707143Y-126136429D01*
X169778572Y-125993571D01*
X169921429Y-125922143D01*
X170278572Y-125922143D01*
X170421429Y-125850714D01*
X162600001Y-128043571D02*
X162957144Y-129043571D01*
X163314286Y-128043571D01*
X163885715Y-128900714D02*
X163957143Y-128972143D01*
X163885715Y-129043571D01*
X163814286Y-128972143D01*
X163885715Y-128900714D01*
X163885715Y-129043571D01*
X165385715Y-129043571D02*
X164528572Y-129043571D01*
X164957144Y-129043571D02*
X164957144Y-127543571D01*
X164814287Y-127757857D01*
X164671429Y-127900714D01*
X164528572Y-127972143D01*
X166028572Y-128900714D02*
X166100000Y-128972143D01*
X166028572Y-129043571D01*
X165957143Y-128972143D01*
X166028572Y-128900714D01*
X166028572Y-129043571D01*
X166671429Y-127686429D02*
X166742858Y-127615000D01*
X166885715Y-127543571D01*
X167242858Y-127543571D01*
X167385715Y-127615000D01*
X167457144Y-127686429D01*
X167528572Y-127829286D01*
X167528572Y-127972143D01*
X167457144Y-128186429D01*
X166600001Y-129043571D01*
X167528572Y-129043571D01*
X157421429Y-131450714D02*
X157350000Y-131522143D01*
X157135714Y-131593571D01*
X156992857Y-131593571D01*
X156778572Y-131522143D01*
X156635714Y-131379286D01*
X156564286Y-131236429D01*
X156492857Y-130950714D01*
X156492857Y-130736429D01*
X156564286Y-130450714D01*
X156635714Y-130307857D01*
X156778572Y-130165000D01*
X156992857Y-130093571D01*
X157135714Y-130093571D01*
X157350000Y-130165000D01*
X157421429Y-130236429D01*
X158635714Y-131522143D02*
X158492857Y-131593571D01*
X158207143Y-131593571D01*
X158064286Y-131522143D01*
X157992857Y-131379286D01*
X157992857Y-130807857D01*
X158064286Y-130665000D01*
X158207143Y-130593571D01*
X158492857Y-130593571D01*
X158635714Y-130665000D01*
X158707143Y-130807857D01*
X158707143Y-130950714D01*
X157992857Y-131093571D01*
X159992857Y-131522143D02*
X159850000Y-131593571D01*
X159564286Y-131593571D01*
X159421428Y-131522143D01*
X159350000Y-131450714D01*
X159278571Y-131307857D01*
X159278571Y-130879286D01*
X159350000Y-130736429D01*
X159421428Y-130665000D01*
X159564286Y-130593571D01*
X159850000Y-130593571D01*
X159992857Y-130665000D01*
X160635714Y-131593571D02*
X160635714Y-130593571D01*
X160635714Y-130093571D02*
X160564285Y-130165000D01*
X160635714Y-130236429D01*
X160707142Y-130165000D01*
X160635714Y-130093571D01*
X160635714Y-130236429D01*
X161564286Y-131593571D02*
X161421428Y-131522143D01*
X161350000Y-131379286D01*
X161350000Y-130093571D01*
X162135714Y-131593571D02*
X162135714Y-130593571D01*
X162135714Y-130093571D02*
X162064285Y-130165000D01*
X162135714Y-130236429D01*
X162207142Y-130165000D01*
X162135714Y-130093571D01*
X162135714Y-130236429D01*
X163492857Y-131593571D02*
X163492857Y-130807857D01*
X163421428Y-130665000D01*
X163278571Y-130593571D01*
X162992857Y-130593571D01*
X162850000Y-130665000D01*
X163492857Y-131522143D02*
X163350000Y-131593571D01*
X162992857Y-131593571D01*
X162850000Y-131522143D01*
X162778571Y-131379286D01*
X162778571Y-131236429D01*
X162850000Y-131093571D01*
X162992857Y-131022143D01*
X163350000Y-131022143D01*
X163492857Y-130950714D01*
X165350000Y-131593571D02*
X165350000Y-130093571D01*
X165707143Y-130093571D01*
X165921428Y-130165000D01*
X166064286Y-130307857D01*
X166135714Y-130450714D01*
X166207143Y-130736429D01*
X166207143Y-130950714D01*
X166135714Y-131236429D01*
X166064286Y-131379286D01*
X165921428Y-131522143D01*
X165707143Y-131593571D01*
X165350000Y-131593571D01*
X167492857Y-131593571D02*
X167492857Y-130807857D01*
X167421428Y-130665000D01*
X167278571Y-130593571D01*
X166992857Y-130593571D01*
X166850000Y-130665000D01*
X167492857Y-131522143D02*
X167350000Y-131593571D01*
X166992857Y-131593571D01*
X166850000Y-131522143D01*
X166778571Y-131379286D01*
X166778571Y-131236429D01*
X166850000Y-131093571D01*
X166992857Y-131022143D01*
X167350000Y-131022143D01*
X167492857Y-130950714D01*
X167992857Y-130593571D02*
X168564286Y-130593571D01*
X168207143Y-130093571D02*
X168207143Y-131379286D01*
X168278571Y-131522143D01*
X168421429Y-131593571D01*
X168564286Y-131593571D01*
X169707143Y-131593571D02*
X169707143Y-130807857D01*
X169635714Y-130665000D01*
X169492857Y-130593571D01*
X169207143Y-130593571D01*
X169064286Y-130665000D01*
X169707143Y-131522143D02*
X169564286Y-131593571D01*
X169207143Y-131593571D01*
X169064286Y-131522143D01*
X168992857Y-131379286D01*
X168992857Y-131236429D01*
X169064286Y-131093571D01*
X169207143Y-131022143D01*
X169564286Y-131022143D01*
X169707143Y-130950714D01*
X171492857Y-131165000D02*
X172207143Y-131165000D01*
X171350000Y-131593571D02*
X171850000Y-130093571D01*
X172350000Y-131593571D01*
X173350000Y-130807857D02*
X173564286Y-130879286D01*
X173635714Y-130950714D01*
X173707143Y-131093571D01*
X173707143Y-131307857D01*
X173635714Y-131450714D01*
X173564286Y-131522143D01*
X173421428Y-131593571D01*
X172850000Y-131593571D01*
X172850000Y-130093571D01*
X173350000Y-130093571D01*
X173492857Y-130165000D01*
X173564286Y-130236429D01*
X173635714Y-130379286D01*
X173635714Y-130522143D01*
X173564286Y-130665000D01*
X173492857Y-130736429D01*
X173350000Y-130807857D01*
X172850000Y-130807857D01*
X164525000Y-94682143D02*
X164739286Y-94753571D01*
X165096429Y-94753571D01*
X165239286Y-94682143D01*
X165310715Y-94610714D01*
X165382143Y-94467857D01*
X165382143Y-94325000D01*
X165310715Y-94182143D01*
X165239286Y-94110714D01*
X165096429Y-94039286D01*
X164810715Y-93967857D01*
X164667857Y-93896429D01*
X164596429Y-93825000D01*
X164525000Y-93682143D01*
X164525000Y-93539286D01*
X164596429Y-93396429D01*
X164667857Y-93325000D01*
X164810715Y-93253571D01*
X165167857Y-93253571D01*
X165382143Y-93325000D01*
X166025000Y-94753571D02*
X166025000Y-93253571D01*
X166667857Y-94753571D02*
X166667857Y-93967857D01*
X166596428Y-93825000D01*
X166453571Y-93753571D01*
X166239286Y-93753571D01*
X166096428Y-93825000D01*
X166025000Y-93896429D01*
X168025000Y-93753571D02*
X168025000Y-94753571D01*
X167382143Y-93753571D02*
X167382143Y-94539286D01*
X167453571Y-94682143D01*
X167596429Y-94753571D01*
X167810714Y-94753571D01*
X167953571Y-94682143D01*
X168025000Y-94610714D01*
X168525000Y-93753571D02*
X169096429Y-93753571D01*
X168739286Y-93253571D02*
X168739286Y-94539286D01*
X168810714Y-94682143D01*
X168953572Y-94753571D01*
X169096429Y-94753571D01*
X169382143Y-93753571D02*
X169953572Y-93753571D01*
X169596429Y-93253571D02*
X169596429Y-94539286D01*
X169667857Y-94682143D01*
X169810715Y-94753571D01*
X169953572Y-94753571D01*
X171025000Y-94682143D02*
X170882143Y-94753571D01*
X170596429Y-94753571D01*
X170453572Y-94682143D01*
X170382143Y-94539286D01*
X170382143Y-93967857D01*
X170453572Y-93825000D01*
X170596429Y-93753571D01*
X170882143Y-93753571D01*
X171025000Y-93825000D01*
X171096429Y-93967857D01*
X171096429Y-94110714D01*
X170382143Y-94253571D01*
X171739286Y-94753571D02*
X171739286Y-93753571D01*
X171739286Y-94039286D02*
X171810714Y-93896429D01*
X171882143Y-93825000D01*
X172025000Y-93753571D01*
X172167857Y-93753571D01*
D12*
X178816000Y-96615000D02*
G75*
G03X178816000Y-96615000I-2286000J0D01*
G01*
X136906000Y-97250000D02*
G75*
G03X136906000Y-97250000I-2286000J0D01*
G01*
X136906000Y-128365000D02*
G75*
G03X136906000Y-128365000I-2286000J0D01*
G01*
X169800000Y-105760000D02*
X167930000Y-105760000D01*
X162940000Y-105760000D02*
X164810000Y-105760000D01*
X162180000Y-114140000D02*
X164810000Y-114140000D01*
X170560000Y-114140000D02*
X167930000Y-114140000D01*
X162180000Y-114140000D02*
X162180000Y-106520000D01*
X162180000Y-106520000D02*
X162940000Y-105760000D01*
X169800000Y-105760000D02*
X170560000Y-106520000D01*
X170560000Y-106520000D02*
X170560000Y-114140000D01*
D13*
X144780000Y-109061000D02*
X144780000Y-104235000D01*
X144780000Y-104235000D02*
X154940000Y-104235000D01*
X154940000Y-104235000D02*
X154940000Y-109061000D01*
X154940000Y-109061000D02*
X144780000Y-109061000D01*
X154940000Y-107283000D02*
X154305000Y-107283000D01*
X154305000Y-107283000D02*
X154305000Y-106013000D01*
X154305000Y-106013000D02*
X154940000Y-106013000D01*
D12*
X137485000Y-115917000D02*
X138415000Y-115917000D01*
X140645000Y-115917000D02*
X139715000Y-115917000D01*
X140645000Y-115917000D02*
X140645000Y-113757000D01*
X137485000Y-115917000D02*
X137485000Y-114457000D01*
X142565000Y-115917000D02*
X143495000Y-115917000D01*
X145725000Y-115917000D02*
X144795000Y-115917000D01*
X145725000Y-115917000D02*
X145725000Y-113757000D01*
X142565000Y-115917000D02*
X142565000Y-114457000D01*
X147645000Y-115917000D02*
X148575000Y-115917000D01*
X150805000Y-115917000D02*
X149875000Y-115917000D01*
X150805000Y-115917000D02*
X150805000Y-113757000D01*
X147645000Y-115917000D02*
X147645000Y-114457000D01*
X152725000Y-115790000D02*
X153655000Y-115790000D01*
X155885000Y-115790000D02*
X154955000Y-115790000D01*
X155885000Y-115790000D02*
X155885000Y-113630000D01*
X152725000Y-115790000D02*
X152725000Y-114330000D01*
X157805000Y-115917000D02*
X158735000Y-115917000D01*
X160965000Y-115917000D02*
X160035000Y-115917000D01*
X160965000Y-115917000D02*
X160965000Y-113757000D01*
X157805000Y-115917000D02*
X157805000Y-114457000D01*
X131385000Y-110010000D02*
X136585000Y-110010000D01*
X131385000Y-104870000D02*
X131385000Y-110010000D01*
X136585000Y-102270000D02*
X136585000Y-110010000D01*
X131385000Y-104870000D02*
X133985000Y-104870000D01*
X133985000Y-104870000D02*
X133985000Y-102270000D01*
X133985000Y-102270000D02*
X136585000Y-102270000D01*
X131385000Y-103600000D02*
X131385000Y-102270000D01*
X131385000Y-102270000D02*
X132715000Y-102270000D01*
X157865000Y-107775000D02*
X157865000Y-105775000D01*
X155825000Y-105775000D02*
X155825000Y-107775000D01*
X162310000Y-102695000D02*
X162310000Y-100695000D01*
X160270000Y-100695000D02*
X160270000Y-102695000D01*
X144530000Y-98885000D02*
X144530000Y-96885000D01*
X142490000Y-96885000D02*
X142490000Y-98885000D01*
X160985000Y-118320000D02*
X160985000Y-124440000D01*
X160985000Y-124440000D02*
X178105000Y-124440000D01*
X178105000Y-124440000D02*
X178105000Y-118320000D01*
X178105000Y-118320000D02*
X160985000Y-118320000D01*
X160765000Y-121380000D02*
X160985000Y-121380000D01*
X178325000Y-121380000D02*
X178105000Y-121380000D01*
X165675000Y-95920000D02*
X165675000Y-98580000D01*
X168275000Y-95920000D02*
X165675000Y-95920000D01*
X168275000Y-98580000D02*
X165675000Y-98580000D01*
X168275000Y-95920000D02*
X168275000Y-98580000D01*
X169545000Y-95920000D02*
X170875000Y-95920000D01*
X170875000Y-95920000D02*
X170875000Y-97250000D01*
X167130000Y-103910000D02*
X167130000Y-102980000D01*
X167130000Y-100750000D02*
X167130000Y-101680000D01*
X167130000Y-100750000D02*
X164970000Y-100750000D01*
X167130000Y-103910000D02*
X165670000Y-103910000D01*
D13*
X160305000Y-99215000D02*
X148305000Y-99215000D01*
X148305000Y-99215000D02*
X148305000Y-94015000D01*
X148305000Y-94015000D02*
X160305000Y-94015000D01*
X160305000Y-94015000D02*
X160305000Y-99215000D01*
D12*
X138065000Y-118360000D02*
X138065000Y-122660000D01*
X138065000Y-122660000D02*
X140065000Y-122660000D01*
X140065000Y-122660000D02*
X140065000Y-118360000D01*
X143145000Y-118360000D02*
X143145000Y-122660000D01*
X143145000Y-122660000D02*
X145145000Y-122660000D01*
X145145000Y-122660000D02*
X145145000Y-118360000D01*
X148225000Y-118360000D02*
X148225000Y-122660000D01*
X148225000Y-122660000D02*
X150225000Y-122660000D01*
X150225000Y-122660000D02*
X150225000Y-118360000D01*
X153305000Y-118360000D02*
X153305000Y-122660000D01*
X153305000Y-122660000D02*
X155305000Y-122660000D01*
X155305000Y-122660000D02*
X155305000Y-118360000D01*
X176250000Y-107280000D02*
X176250000Y-104880000D01*
X171770000Y-107360000D02*
X171770000Y-104960000D01*
X179451000Y-128365000D02*
G75*
G03X179451000Y-128365000I-2286000J0D01*
G01*
X140325000Y-124645000D02*
X140325000Y-130595000D01*
X140325000Y-130595000D02*
X155425000Y-130595000D01*
X155425000Y-130595000D02*
X155425000Y-124645000D01*
X155425000Y-124645000D02*
X140325000Y-124645000D01*
X143625000Y-124645000D02*
X143625000Y-125395000D01*
X143625000Y-125395000D02*
X152125000Y-125395000D01*
X152125000Y-125395000D02*
X152125000Y-124645000D01*
X152125000Y-124645000D02*
X143625000Y-124645000D01*
X140325000Y-124645000D02*
X140325000Y-125395000D01*
X140325000Y-125395000D02*
X142125000Y-125395000D01*
X142125000Y-125395000D02*
X142125000Y-124645000D01*
X142125000Y-124645000D02*
X140325000Y-124645000D01*
X153625000Y-124645000D02*
X153625000Y-125395000D01*
X153625000Y-125395000D02*
X155425000Y-125395000D01*
X155425000Y-125395000D02*
X155425000Y-124645000D01*
X155425000Y-124645000D02*
X153625000Y-124645000D01*
X140325000Y-126895000D02*
X141075000Y-126895000D01*
X141075000Y-126895000D02*
X141075000Y-129845000D01*
X141075000Y-129845000D02*
X147875000Y-129845000D01*
X155425000Y-126895000D02*
X154675000Y-126895000D01*
X154675000Y-126895000D02*
X154675000Y-129845000D01*
X154675000Y-129845000D02*
X147875000Y-129845000D01*
X142525000Y-124345000D02*
X140025000Y-124345000D01*
X140025000Y-124345000D02*
X140025000Y-126845000D01*
X169180000Y-101215000D02*
X169180000Y-105515000D01*
X169180000Y-105515000D02*
X171180000Y-105515000D01*
X171180000Y-105515000D02*
X171180000Y-101215000D01*
X141970000Y-109750000D02*
X139970000Y-109750000D01*
X139970000Y-107610000D02*
X141970000Y-107610000D01*
X141970000Y-106575000D02*
X139970000Y-106575000D01*
X139970000Y-104435000D02*
X141970000Y-104435000D01*
X141970000Y-103400000D02*
X139970000Y-103400000D01*
X139970000Y-101260000D02*
X141970000Y-101260000D01*
D13*
X161277143Y-110116666D02*
X161324762Y-110164285D01*
X161372381Y-110307142D01*
X161372381Y-110402380D01*
X161324762Y-110545238D01*
X161229524Y-110640476D01*
X161134286Y-110688095D01*
X160943810Y-110735714D01*
X160800952Y-110735714D01*
X160610476Y-110688095D01*
X160515238Y-110640476D01*
X160420000Y-110545238D01*
X160372381Y-110402380D01*
X160372381Y-110307142D01*
X160420000Y-110164285D01*
X160467619Y-110116666D01*
X161372381Y-109164285D02*
X161372381Y-109735714D01*
X161372381Y-109450000D02*
X160372381Y-109450000D01*
X160515238Y-109545238D01*
X160610476Y-109640476D01*
X160658095Y-109735714D01*
X162591429Y-105610952D02*
X162591429Y-104849047D01*
X162972381Y-105229999D02*
X162210476Y-105229999D01*
X149098095Y-107497381D02*
X149098095Y-108306905D01*
X149145714Y-108402143D01*
X149193333Y-108449762D01*
X149288571Y-108497381D01*
X149479048Y-108497381D01*
X149574286Y-108449762D01*
X149621905Y-108402143D01*
X149669524Y-108306905D01*
X149669524Y-107497381D01*
X150669524Y-108497381D02*
X150098095Y-108497381D01*
X150383809Y-108497381D02*
X150383809Y-107497381D01*
X150288571Y-107640238D01*
X150193333Y-107735476D01*
X150098095Y-107783095D01*
X142112619Y-115252238D02*
X142065000Y-115347476D01*
X141969762Y-115442714D01*
X141826905Y-115585571D01*
X141779286Y-115680810D01*
X141779286Y-115776048D01*
X142017381Y-115728429D02*
X141969762Y-115823667D01*
X141874524Y-115918905D01*
X141684048Y-115966524D01*
X141350714Y-115966524D01*
X141160238Y-115918905D01*
X141065000Y-115823667D01*
X141017381Y-115728429D01*
X141017381Y-115537952D01*
X141065000Y-115442714D01*
X141160238Y-115347476D01*
X141350714Y-115299857D01*
X141684048Y-115299857D01*
X141874524Y-115347476D01*
X141969762Y-115442714D01*
X142017381Y-115537952D01*
X142017381Y-115728429D01*
X142017381Y-114347476D02*
X142017381Y-114918905D01*
X142017381Y-114633191D02*
X141017381Y-114633191D01*
X141160238Y-114728429D01*
X141255476Y-114823667D01*
X141303095Y-114918905D01*
X147192619Y-115252238D02*
X147145000Y-115347476D01*
X147049762Y-115442714D01*
X146906905Y-115585571D01*
X146859286Y-115680810D01*
X146859286Y-115776048D01*
X147097381Y-115728429D02*
X147049762Y-115823667D01*
X146954524Y-115918905D01*
X146764048Y-115966524D01*
X146430714Y-115966524D01*
X146240238Y-115918905D01*
X146145000Y-115823667D01*
X146097381Y-115728429D01*
X146097381Y-115537952D01*
X146145000Y-115442714D01*
X146240238Y-115347476D01*
X146430714Y-115299857D01*
X146764048Y-115299857D01*
X146954524Y-115347476D01*
X147049762Y-115442714D01*
X147097381Y-115537952D01*
X147097381Y-115728429D01*
X146192619Y-114918905D02*
X146145000Y-114871286D01*
X146097381Y-114776048D01*
X146097381Y-114537952D01*
X146145000Y-114442714D01*
X146192619Y-114395095D01*
X146287857Y-114347476D01*
X146383095Y-114347476D01*
X146525952Y-114395095D01*
X147097381Y-114966524D01*
X147097381Y-114347476D01*
X152272619Y-115252238D02*
X152225000Y-115347476D01*
X152129762Y-115442714D01*
X151986905Y-115585571D01*
X151939286Y-115680810D01*
X151939286Y-115776048D01*
X152177381Y-115728429D02*
X152129762Y-115823667D01*
X152034524Y-115918905D01*
X151844048Y-115966524D01*
X151510714Y-115966524D01*
X151320238Y-115918905D01*
X151225000Y-115823667D01*
X151177381Y-115728429D01*
X151177381Y-115537952D01*
X151225000Y-115442714D01*
X151320238Y-115347476D01*
X151510714Y-115299857D01*
X151844048Y-115299857D01*
X152034524Y-115347476D01*
X152129762Y-115442714D01*
X152177381Y-115537952D01*
X152177381Y-115728429D01*
X151177381Y-114966524D02*
X151177381Y-114347476D01*
X151558333Y-114680810D01*
X151558333Y-114537952D01*
X151605952Y-114442714D01*
X151653571Y-114395095D01*
X151748810Y-114347476D01*
X151986905Y-114347476D01*
X152082143Y-114395095D01*
X152129762Y-114442714D01*
X152177381Y-114537952D01*
X152177381Y-114823667D01*
X152129762Y-114918905D01*
X152082143Y-114966524D01*
X157352619Y-115125238D02*
X157305000Y-115220476D01*
X157209762Y-115315714D01*
X157066905Y-115458571D01*
X157019286Y-115553810D01*
X157019286Y-115649048D01*
X157257381Y-115601429D02*
X157209762Y-115696667D01*
X157114524Y-115791905D01*
X156924048Y-115839524D01*
X156590714Y-115839524D01*
X156400238Y-115791905D01*
X156305000Y-115696667D01*
X156257381Y-115601429D01*
X156257381Y-115410952D01*
X156305000Y-115315714D01*
X156400238Y-115220476D01*
X156590714Y-115172857D01*
X156924048Y-115172857D01*
X157114524Y-115220476D01*
X157209762Y-115315714D01*
X157257381Y-115410952D01*
X157257381Y-115601429D01*
X156590714Y-114315714D02*
X157257381Y-114315714D01*
X156209762Y-114553810D02*
X156924048Y-114791905D01*
X156924048Y-114172857D01*
X162432619Y-115252238D02*
X162385000Y-115347476D01*
X162289762Y-115442714D01*
X162146905Y-115585571D01*
X162099286Y-115680810D01*
X162099286Y-115776048D01*
X162337381Y-115728429D02*
X162289762Y-115823667D01*
X162194524Y-115918905D01*
X162004048Y-115966524D01*
X161670714Y-115966524D01*
X161480238Y-115918905D01*
X161385000Y-115823667D01*
X161337381Y-115728429D01*
X161337381Y-115537952D01*
X161385000Y-115442714D01*
X161480238Y-115347476D01*
X161670714Y-115299857D01*
X162004048Y-115299857D01*
X162194524Y-115347476D01*
X162289762Y-115442714D01*
X162337381Y-115537952D01*
X162337381Y-115728429D01*
X161337381Y-114395095D02*
X161337381Y-114871286D01*
X161813571Y-114918905D01*
X161765952Y-114871286D01*
X161718333Y-114776048D01*
X161718333Y-114537952D01*
X161765952Y-114442714D01*
X161813571Y-114395095D01*
X161908810Y-114347476D01*
X162146905Y-114347476D01*
X162242143Y-114395095D01*
X162289762Y-114442714D01*
X162337381Y-114537952D01*
X162337381Y-114776048D01*
X162289762Y-114871286D01*
X162242143Y-114918905D01*
X133651667Y-100722381D02*
X133651667Y-101436667D01*
X133604047Y-101579524D01*
X133508809Y-101674762D01*
X133365952Y-101722381D01*
X133270714Y-101722381D01*
X134175476Y-101722381D02*
X134365952Y-101722381D01*
X134461191Y-101674762D01*
X134508810Y-101627143D01*
X134604048Y-101484286D01*
X134651667Y-101293810D01*
X134651667Y-100912857D01*
X134604048Y-100817619D01*
X134556429Y-100770000D01*
X134461191Y-100722381D01*
X134270714Y-100722381D01*
X134175476Y-100770000D01*
X134127857Y-100817619D01*
X134080238Y-100912857D01*
X134080238Y-101150952D01*
X134127857Y-101246190D01*
X134175476Y-101293810D01*
X134270714Y-101341429D01*
X134461191Y-101341429D01*
X134556429Y-101293810D01*
X134604048Y-101246190D01*
X134651667Y-101150952D01*
X158952143Y-106941666D02*
X158999762Y-106989285D01*
X159047381Y-107132142D01*
X159047381Y-107227380D01*
X158999762Y-107370238D01*
X158904524Y-107465476D01*
X158809286Y-107513095D01*
X158618810Y-107560714D01*
X158475952Y-107560714D01*
X158285476Y-107513095D01*
X158190238Y-107465476D01*
X158095000Y-107370238D01*
X158047381Y-107227380D01*
X158047381Y-107132142D01*
X158095000Y-106989285D01*
X158142619Y-106941666D01*
X158142619Y-106560714D02*
X158095000Y-106513095D01*
X158047381Y-106417857D01*
X158047381Y-106179761D01*
X158095000Y-106084523D01*
X158142619Y-106036904D01*
X158237857Y-105989285D01*
X158333095Y-105989285D01*
X158475952Y-106036904D01*
X159047381Y-106608333D01*
X159047381Y-105989285D01*
X163397143Y-101861666D02*
X163444762Y-101909285D01*
X163492381Y-102052142D01*
X163492381Y-102147380D01*
X163444762Y-102290238D01*
X163349524Y-102385476D01*
X163254286Y-102433095D01*
X163063810Y-102480714D01*
X162920952Y-102480714D01*
X162730476Y-102433095D01*
X162635238Y-102385476D01*
X162540000Y-102290238D01*
X162492381Y-102147380D01*
X162492381Y-102052142D01*
X162540000Y-101909285D01*
X162587619Y-101861666D01*
X162492381Y-101528333D02*
X162492381Y-100909285D01*
X162873333Y-101242619D01*
X162873333Y-101099761D01*
X162920952Y-101004523D01*
X162968571Y-100956904D01*
X163063810Y-100909285D01*
X163301905Y-100909285D01*
X163397143Y-100956904D01*
X163444762Y-101004523D01*
X163492381Y-101099761D01*
X163492381Y-101385476D01*
X163444762Y-101480714D01*
X163397143Y-101528333D01*
X145617143Y-98051666D02*
X145664762Y-98099285D01*
X145712381Y-98242142D01*
X145712381Y-98337380D01*
X145664762Y-98480238D01*
X145569524Y-98575476D01*
X145474286Y-98623095D01*
X145283810Y-98670714D01*
X145140952Y-98670714D01*
X144950476Y-98623095D01*
X144855238Y-98575476D01*
X144760000Y-98480238D01*
X144712381Y-98337380D01*
X144712381Y-98242142D01*
X144760000Y-98099285D01*
X144807619Y-98051666D01*
X145045714Y-97194523D02*
X145712381Y-97194523D01*
X144664762Y-97432619D02*
X145379048Y-97670714D01*
X145379048Y-97051666D01*
X169378334Y-117772381D02*
X169045000Y-117296190D01*
X168806905Y-117772381D02*
X168806905Y-116772381D01*
X169187858Y-116772381D01*
X169283096Y-116820000D01*
X169330715Y-116867619D01*
X169378334Y-116962857D01*
X169378334Y-117105714D01*
X169330715Y-117200952D01*
X169283096Y-117248571D01*
X169187858Y-117296190D01*
X168806905Y-117296190D01*
X169759286Y-116867619D02*
X169806905Y-116820000D01*
X169902143Y-116772381D01*
X170140239Y-116772381D01*
X170235477Y-116820000D01*
X170283096Y-116867619D01*
X170330715Y-116962857D01*
X170330715Y-117058095D01*
X170283096Y-117200952D01*
X169711667Y-117772381D01*
X170330715Y-117772381D01*
X171327381Y-97583333D02*
X172041667Y-97583333D01*
X172184524Y-97630953D01*
X172279762Y-97726191D01*
X172327381Y-97869048D01*
X172327381Y-97964286D01*
X171327381Y-97202381D02*
X171327381Y-96535714D01*
X172327381Y-96964286D01*
X166274762Y-100377619D02*
X166179524Y-100330000D01*
X166084286Y-100234762D01*
X165941429Y-100091905D01*
X165846190Y-100044286D01*
X165750952Y-100044286D01*
X165798571Y-100282381D02*
X165703333Y-100234762D01*
X165608095Y-100139524D01*
X165560476Y-99949048D01*
X165560476Y-99615714D01*
X165608095Y-99425238D01*
X165703333Y-99330000D01*
X165798571Y-99282381D01*
X165989048Y-99282381D01*
X166084286Y-99330000D01*
X166179524Y-99425238D01*
X166227143Y-99615714D01*
X166227143Y-99949048D01*
X166179524Y-100139524D01*
X166084286Y-100234762D01*
X165989048Y-100282381D01*
X165798571Y-100282381D01*
X167084286Y-99282381D02*
X166893809Y-99282381D01*
X166798571Y-99330000D01*
X166750952Y-99377619D01*
X166655714Y-99520476D01*
X166608095Y-99710952D01*
X166608095Y-100091905D01*
X166655714Y-100187143D01*
X166703333Y-100234762D01*
X166798571Y-100282381D01*
X166989048Y-100282381D01*
X167084286Y-100234762D01*
X167131905Y-100187143D01*
X167179524Y-100091905D01*
X167179524Y-99853810D01*
X167131905Y-99758571D01*
X167084286Y-99710952D01*
X166989048Y-99663333D01*
X166798571Y-99663333D01*
X166703333Y-99710952D01*
X166655714Y-99758571D01*
X166608095Y-99853810D01*
X153828809Y-100091190D02*
X153828809Y-100567381D01*
X153495476Y-99567381D02*
X153828809Y-100091190D01*
X154162143Y-99567381D01*
X155019286Y-100567381D02*
X154447857Y-100567381D01*
X154733571Y-100567381D02*
X154733571Y-99567381D01*
X154638333Y-99710238D01*
X154543095Y-99805476D01*
X154447857Y-99853095D01*
X137517381Y-120848095D02*
X136517381Y-120848095D01*
X136517381Y-120610000D01*
X136565000Y-120467142D01*
X136660238Y-120371904D01*
X136755476Y-120324285D01*
X136945952Y-120276666D01*
X137088810Y-120276666D01*
X137279286Y-120324285D01*
X137374524Y-120371904D01*
X137469762Y-120467142D01*
X137517381Y-120610000D01*
X137517381Y-120848095D01*
X137517381Y-119324285D02*
X137517381Y-119895714D01*
X137517381Y-119610000D02*
X136517381Y-119610000D01*
X136660238Y-119705238D01*
X136755476Y-119800476D01*
X136803095Y-119895714D01*
X142597381Y-120848095D02*
X141597381Y-120848095D01*
X141597381Y-120610000D01*
X141645000Y-120467142D01*
X141740238Y-120371904D01*
X141835476Y-120324285D01*
X142025952Y-120276666D01*
X142168810Y-120276666D01*
X142359286Y-120324285D01*
X142454524Y-120371904D01*
X142549762Y-120467142D01*
X142597381Y-120610000D01*
X142597381Y-120848095D01*
X141692619Y-119895714D02*
X141645000Y-119848095D01*
X141597381Y-119752857D01*
X141597381Y-119514761D01*
X141645000Y-119419523D01*
X141692619Y-119371904D01*
X141787857Y-119324285D01*
X141883095Y-119324285D01*
X142025952Y-119371904D01*
X142597381Y-119943333D01*
X142597381Y-119324285D01*
X147677381Y-120848095D02*
X146677381Y-120848095D01*
X146677381Y-120610000D01*
X146725000Y-120467142D01*
X146820238Y-120371904D01*
X146915476Y-120324285D01*
X147105952Y-120276666D01*
X147248810Y-120276666D01*
X147439286Y-120324285D01*
X147534524Y-120371904D01*
X147629762Y-120467142D01*
X147677381Y-120610000D01*
X147677381Y-120848095D01*
X146677381Y-119943333D02*
X146677381Y-119324285D01*
X147058333Y-119657619D01*
X147058333Y-119514761D01*
X147105952Y-119419523D01*
X147153571Y-119371904D01*
X147248810Y-119324285D01*
X147486905Y-119324285D01*
X147582143Y-119371904D01*
X147629762Y-119419523D01*
X147677381Y-119514761D01*
X147677381Y-119800476D01*
X147629762Y-119895714D01*
X147582143Y-119943333D01*
X152757381Y-120848095D02*
X151757381Y-120848095D01*
X151757381Y-120610000D01*
X151805000Y-120467142D01*
X151900238Y-120371904D01*
X151995476Y-120324285D01*
X152185952Y-120276666D01*
X152328810Y-120276666D01*
X152519286Y-120324285D01*
X152614524Y-120371904D01*
X152709762Y-120467142D01*
X152757381Y-120610000D01*
X152757381Y-120848095D01*
X152090714Y-119419523D02*
X152757381Y-119419523D01*
X151709762Y-119657619D02*
X152424048Y-119895714D01*
X152424048Y-119276666D01*
X170838571Y-106503333D02*
X170838571Y-106836667D01*
X171362381Y-106836667D02*
X170362381Y-106836667D01*
X170362381Y-106360476D01*
X171362381Y-105455714D02*
X171362381Y-106027143D01*
X171362381Y-105741429D02*
X170362381Y-105741429D01*
X170505238Y-105836667D01*
X170600476Y-105931905D01*
X170648095Y-106027143D01*
X175242381Y-112998333D02*
X175956667Y-112998333D01*
X176099524Y-113045953D01*
X176194762Y-113141191D01*
X176242381Y-113284048D01*
X176242381Y-113379286D01*
X176242381Y-111998333D02*
X176242381Y-112569762D01*
X176242381Y-112284048D02*
X175242381Y-112284048D01*
X175385238Y-112379286D01*
X175480476Y-112474524D01*
X175528095Y-112569762D01*
X147541667Y-123047381D02*
X147541667Y-123761667D01*
X147494047Y-123904524D01*
X147398809Y-123999762D01*
X147255952Y-124047381D01*
X147160714Y-124047381D01*
X147970238Y-123142619D02*
X148017857Y-123095000D01*
X148113095Y-123047381D01*
X148351191Y-123047381D01*
X148446429Y-123095000D01*
X148494048Y-123142619D01*
X148541667Y-123237857D01*
X148541667Y-123333095D01*
X148494048Y-123475952D01*
X147922619Y-124047381D01*
X148541667Y-124047381D01*
X168632381Y-103703095D02*
X167632381Y-103703095D01*
X167632381Y-103465000D01*
X167680000Y-103322142D01*
X167775238Y-103226904D01*
X167870476Y-103179285D01*
X168060952Y-103131666D01*
X168203810Y-103131666D01*
X168394286Y-103179285D01*
X168489524Y-103226904D01*
X168584762Y-103322142D01*
X168632381Y-103465000D01*
X168632381Y-103703095D01*
X167632381Y-102226904D02*
X167632381Y-102703095D01*
X168108571Y-102750714D01*
X168060952Y-102703095D01*
X168013333Y-102607857D01*
X168013333Y-102369761D01*
X168060952Y-102274523D01*
X168108571Y-102226904D01*
X168203810Y-102179285D01*
X168441905Y-102179285D01*
X168537143Y-102226904D01*
X168584762Y-102274523D01*
X168632381Y-102369761D01*
X168632381Y-102607857D01*
X168584762Y-102703095D01*
X168537143Y-102750714D01*
X140803334Y-107282381D02*
X140470000Y-106806190D01*
X140231905Y-107282381D02*
X140231905Y-106282381D01*
X140612858Y-106282381D01*
X140708096Y-106330000D01*
X140755715Y-106377619D01*
X140803334Y-106472857D01*
X140803334Y-106615714D01*
X140755715Y-106710952D01*
X140708096Y-106758571D01*
X140612858Y-106806190D01*
X140231905Y-106806190D01*
X141755715Y-107282381D02*
X141184286Y-107282381D01*
X141470000Y-107282381D02*
X141470000Y-106282381D01*
X141374762Y-106425238D01*
X141279524Y-106520476D01*
X141184286Y-106568095D01*
X140803334Y-104107381D02*
X140470000Y-103631190D01*
X140231905Y-104107381D02*
X140231905Y-103107381D01*
X140612858Y-103107381D01*
X140708096Y-103155000D01*
X140755715Y-103202619D01*
X140803334Y-103297857D01*
X140803334Y-103440714D01*
X140755715Y-103535952D01*
X140708096Y-103583571D01*
X140612858Y-103631190D01*
X140231905Y-103631190D01*
X141136667Y-103107381D02*
X141755715Y-103107381D01*
X141422381Y-103488333D01*
X141565239Y-103488333D01*
X141660477Y-103535952D01*
X141708096Y-103583571D01*
X141755715Y-103678810D01*
X141755715Y-103916905D01*
X141708096Y-104012143D01*
X141660477Y-104059762D01*
X141565239Y-104107381D01*
X141279524Y-104107381D01*
X141184286Y-104059762D01*
X141136667Y-104012143D01*
X140803334Y-100932381D02*
X140470000Y-100456190D01*
X140231905Y-100932381D02*
X140231905Y-99932381D01*
X140612858Y-99932381D01*
X140708096Y-99980000D01*
X140755715Y-100027619D01*
X140803334Y-100122857D01*
X140803334Y-100265714D01*
X140755715Y-100360952D01*
X140708096Y-100408571D01*
X140612858Y-100456190D01*
X140231905Y-100456190D01*
X141660477Y-100265714D02*
X141660477Y-100932381D01*
X141422381Y-99884762D02*
X141184286Y-100599048D01*
X141803334Y-100599048D01*
M02*
