G04 #@! TF.FileFunction,Copper,L2,Bot,Signal*
%FSLAX46Y46*%
G04 Gerber Fmt 4.6, Leading zero omitted, Abs format (unit mm)*
G04 Created by KiCad (PCBNEW 4.0.7-e2-6376~58~ubuntu16.04.1) date Thu May  2 01:35:01 2019*
%MOMM*%
%LPD*%
G01*
G04 APERTURE LIST*
%ADD10C,0.100000*%
%ADD11C,4.064000*%
%ADD12R,1.700000X1.700000*%
%ADD13O,1.700000X1.700000*%
%ADD14C,2.400000*%
%ADD15O,2.400000X2.400000*%
%ADD16O,1.900000X1.100000*%
%ADD17R,1.750000X1.750000*%
%ADD18C,1.750000*%
%ADD19C,0.600000*%
%ADD20C,0.350000*%
%ADD21C,0.254000*%
G04 APERTURE END LIST*
D10*
D11*
X176530000Y-96615000D03*
X134620000Y-97250000D03*
X134620000Y-128365000D03*
D12*
X132715000Y-103600000D03*
D13*
X135255000Y-103600000D03*
X132715000Y-106140000D03*
X135255000Y-106140000D03*
X132715000Y-108680000D03*
X135255000Y-108680000D03*
D14*
X159385000Y-121380000D03*
D15*
X179705000Y-121380000D03*
D12*
X169545000Y-97250000D03*
D13*
X167005000Y-97250000D03*
D16*
X180470000Y-116705000D03*
X180470000Y-109565000D03*
D11*
X177165000Y-128365000D03*
D17*
X142875000Y-127095000D03*
D18*
X145375000Y-127095000D03*
X147875000Y-127095000D03*
X150375000Y-127095000D03*
X152875000Y-127095000D03*
D19*
X146685000Y-113760000D03*
X151765000Y-113125000D03*
X149860000Y-105505000D03*
D20*
X132715000Y-110585000D02*
X132715000Y-108680000D01*
X133350000Y-111220000D02*
X132715000Y-110585000D01*
X144145000Y-111220000D02*
X133350000Y-111220000D01*
X149860000Y-105505000D02*
X144145000Y-111220000D01*
D21*
X130627000Y-93162000D02*
X181158000Y-93162000D01*
X130627000Y-93365200D02*
X181158000Y-93365200D01*
X130627000Y-93568400D02*
X181158000Y-93568400D01*
X130627000Y-93771600D02*
X181158000Y-93771600D01*
X130627000Y-93974800D02*
X181158000Y-93974800D01*
X130627000Y-94178000D02*
X181158000Y-94178000D01*
X130627000Y-94381200D02*
X175627897Y-94381200D01*
X177432202Y-94381200D02*
X181158000Y-94381200D01*
X130627000Y-94584400D02*
X175154330Y-94584400D01*
X177906813Y-94584400D02*
X181158000Y-94584400D01*
X130627000Y-94787600D02*
X174950775Y-94787600D01*
X178109659Y-94787600D02*
X181158000Y-94787600D01*
X130627000Y-94990800D02*
X133779370Y-94990800D01*
X135461032Y-94990800D02*
X174747220Y-94990800D01*
X178312504Y-94990800D02*
X181158000Y-94990800D01*
X130627000Y-95194000D02*
X133287587Y-95194000D01*
X135950392Y-95194000D02*
X174543665Y-95194000D01*
X178515350Y-95194000D02*
X181158000Y-95194000D01*
X130627000Y-95397200D02*
X133066219Y-95397200D01*
X136174303Y-95397200D02*
X174427248Y-95397200D01*
X178633358Y-95397200D02*
X181158000Y-95397200D01*
X130627000Y-95600400D02*
X132862664Y-95600400D01*
X136377149Y-95600400D02*
X174342872Y-95600400D01*
X178717318Y-95600400D02*
X181158000Y-95600400D01*
X130627000Y-95803600D02*
X132659109Y-95803600D01*
X136579994Y-95803600D02*
X174258496Y-95803600D01*
X178801278Y-95803600D02*
X181158000Y-95803600D01*
X130627000Y-96006800D02*
X132527795Y-96006800D01*
X136712863Y-96006800D02*
X166206864Y-96006800D01*
X166878000Y-96006800D02*
X167132000Y-96006800D01*
X167803137Y-96006800D02*
X174174120Y-96006800D01*
X178885239Y-96006800D02*
X181158000Y-96006800D01*
X130627000Y-96210000D02*
X132443419Y-96210000D01*
X136796823Y-96210000D02*
X165983894Y-96210000D01*
X166878000Y-96210000D02*
X167132000Y-96210000D01*
X168026107Y-96210000D02*
X168368540Y-96210000D01*
X170720735Y-96210000D02*
X174121353Y-96210000D01*
X178939354Y-96210000D02*
X181158000Y-96210000D01*
X130627000Y-96413200D02*
X132359043Y-96413200D01*
X136880783Y-96413200D02*
X165788892Y-96413200D01*
X166878000Y-96413200D02*
X167132000Y-96413200D01*
X168221109Y-96413200D02*
X168310615Y-96413200D01*
X170779385Y-96413200D02*
X174121176Y-96413200D01*
X178939176Y-96413200D02*
X181158000Y-96413200D01*
X130627000Y-96616400D02*
X132274667Y-96616400D01*
X136964744Y-96616400D02*
X165693464Y-96616400D01*
X166878000Y-96616400D02*
X167132000Y-96616400D01*
X170779385Y-96616400D02*
X174120998Y-96616400D01*
X178938999Y-96616400D02*
X181158000Y-96616400D01*
X130627000Y-96819600D02*
X132211375Y-96819600D01*
X137029376Y-96819600D02*
X165598036Y-96819600D01*
X166878000Y-96819600D02*
X167132000Y-96819600D01*
X170779385Y-96819600D02*
X174120821Y-96819600D01*
X178938822Y-96819600D02*
X181158000Y-96819600D01*
X130627000Y-97022800D02*
X132211198Y-97022800D01*
X137029198Y-97022800D02*
X165631587Y-97022800D01*
X166878000Y-97022800D02*
X167132000Y-97022800D01*
X170779385Y-97022800D02*
X174120644Y-97022800D01*
X178938645Y-97022800D02*
X181158000Y-97022800D01*
X130627000Y-97226000D02*
X132211021Y-97226000D01*
X137029021Y-97226000D02*
X167152000Y-97226000D01*
X170779385Y-97226000D02*
X174175918Y-97226000D01*
X178884717Y-97226000D02*
X181158000Y-97226000D01*
X130627000Y-97429200D02*
X132210843Y-97429200D01*
X137028844Y-97429200D02*
X165656782Y-97429200D01*
X166878000Y-97429200D02*
X167132000Y-97429200D01*
X170779385Y-97429200D02*
X174259879Y-97429200D01*
X178800341Y-97429200D02*
X181158000Y-97429200D01*
X130627000Y-97632400D02*
X132210666Y-97632400D01*
X137028666Y-97632400D02*
X165575493Y-97632400D01*
X166878000Y-97632400D02*
X167132000Y-97632400D01*
X170779385Y-97632400D02*
X174343839Y-97632400D01*
X178715965Y-97632400D02*
X181158000Y-97632400D01*
X130627000Y-97835600D02*
X132255423Y-97835600D01*
X136985264Y-97835600D02*
X165670921Y-97835600D01*
X166878000Y-97835600D02*
X167132000Y-97835600D01*
X170779385Y-97835600D02*
X174427799Y-97835600D01*
X178631589Y-97835600D02*
X181158000Y-97835600D01*
X130627000Y-98038800D02*
X132339384Y-98038800D01*
X136900888Y-98038800D02*
X165766349Y-98038800D01*
X166878000Y-98038800D02*
X167132000Y-98038800D01*
X168243650Y-98038800D02*
X168310615Y-98038800D01*
X170779385Y-98038800D02*
X174547445Y-98038800D01*
X178513530Y-98038800D02*
X181158000Y-98038800D01*
X130627000Y-98242000D02*
X132423344Y-98242000D01*
X136816512Y-98242000D02*
X165931223Y-98242000D01*
X166878000Y-98242000D02*
X167132000Y-98242000D01*
X168078776Y-98242000D02*
X168338377Y-98242000D01*
X170750629Y-98242000D02*
X174750291Y-98242000D01*
X178309975Y-98242000D02*
X181158000Y-98242000D01*
X130627000Y-98445200D02*
X132507304Y-98445200D01*
X136732136Y-98445200D02*
X166154193Y-98445200D01*
X166878000Y-98445200D02*
X167132000Y-98445200D01*
X167855806Y-98445200D02*
X168532426Y-98445200D01*
X170554750Y-98445200D02*
X174953136Y-98445200D01*
X178106420Y-98445200D02*
X181158000Y-98445200D01*
X130627000Y-98648400D02*
X132612089Y-98648400D01*
X136628975Y-98648400D02*
X166544108Y-98648400D01*
X166729734Y-98648400D02*
X167280265Y-98648400D01*
X167465891Y-98648400D02*
X175155982Y-98648400D01*
X177902865Y-98648400D02*
X181158000Y-98648400D01*
X130627000Y-98851600D02*
X132814935Y-98851600D01*
X136425420Y-98851600D02*
X175634541Y-98851600D01*
X177425326Y-98851600D02*
X181158000Y-98851600D01*
X130627000Y-99054800D02*
X133017781Y-99054800D01*
X136221864Y-99054800D02*
X181158000Y-99054800D01*
X130627000Y-99258000D02*
X133220626Y-99258000D01*
X136018309Y-99258000D02*
X181158000Y-99258000D01*
X130627000Y-99461200D02*
X133663371Y-99461200D01*
X135576799Y-99461200D02*
X181158000Y-99461200D01*
X130627000Y-99664400D02*
X181158000Y-99664400D01*
X130627000Y-99867600D02*
X181158000Y-99867600D01*
X130627000Y-100070800D02*
X181158000Y-100070800D01*
X130627000Y-100274000D02*
X181158000Y-100274000D01*
X130627000Y-100477200D02*
X181158000Y-100477200D01*
X130627000Y-100680400D02*
X181158000Y-100680400D01*
X130627000Y-100883600D02*
X181158000Y-100883600D01*
X130627000Y-101086800D02*
X181158000Y-101086800D01*
X130627000Y-101290000D02*
X181158000Y-101290000D01*
X130627000Y-101493200D02*
X181158000Y-101493200D01*
X130627000Y-101696400D02*
X181158000Y-101696400D01*
X130627000Y-101899600D02*
X181158000Y-101899600D01*
X130627000Y-102102800D02*
X181158000Y-102102800D01*
X130627000Y-102306000D02*
X181158000Y-102306000D01*
X130627000Y-102509200D02*
X131573250Y-102509200D01*
X133858046Y-102509200D02*
X134697355Y-102509200D01*
X135812646Y-102509200D02*
X181158000Y-102509200D01*
X130627000Y-102712400D02*
X131488230Y-102712400D01*
X133942311Y-102712400D02*
X134393245Y-102712400D01*
X136116756Y-102712400D02*
X181158000Y-102712400D01*
X130627000Y-102915600D02*
X131480615Y-102915600D01*
X133949385Y-102915600D02*
X134240919Y-102915600D01*
X136269082Y-102915600D02*
X181158000Y-102915600D01*
X130627000Y-103118800D02*
X131480615Y-103118800D01*
X133949385Y-103118800D02*
X134105145Y-103118800D01*
X136404856Y-103118800D02*
X181158000Y-103118800D01*
X130627000Y-103322000D02*
X131480615Y-103322000D01*
X133949385Y-103322000D02*
X134059260Y-103322000D01*
X136450741Y-103322000D02*
X181158000Y-103322000D01*
X130627000Y-103525200D02*
X131480615Y-103525200D01*
X133949385Y-103525200D02*
X134018841Y-103525200D01*
X136491160Y-103525200D02*
X181158000Y-103525200D01*
X130627000Y-103728400D02*
X131480615Y-103728400D01*
X133949385Y-103728400D02*
X134029502Y-103728400D01*
X136480497Y-103728400D02*
X181158000Y-103728400D01*
X130627000Y-103931600D02*
X131480615Y-103931600D01*
X133949385Y-103931600D02*
X134069921Y-103931600D01*
X136440078Y-103931600D02*
X181158000Y-103931600D01*
X130627000Y-104134800D02*
X131480615Y-104134800D01*
X133949385Y-104134800D02*
X134140958Y-104134800D01*
X136369041Y-104134800D02*
X181158000Y-104134800D01*
X130627000Y-104338000D02*
X131480615Y-104338000D01*
X133949385Y-104338000D02*
X134276732Y-104338000D01*
X136233267Y-104338000D02*
X181158000Y-104338000D01*
X130627000Y-104541200D02*
X131497775Y-104541200D01*
X133930916Y-104541200D02*
X134473462Y-104541200D01*
X136036537Y-104541200D02*
X181158000Y-104541200D01*
X130627000Y-104744400D02*
X131628078Y-104744400D01*
X133803695Y-104744400D02*
X134815704Y-104744400D01*
X135694295Y-104744400D02*
X181158000Y-104744400D01*
X130627000Y-104947600D02*
X132517017Y-104947600D01*
X132912984Y-104947600D02*
X135057017Y-104947600D01*
X135452984Y-104947600D02*
X149460115Y-104947600D01*
X150260160Y-104947600D02*
X181158000Y-104947600D01*
X130627000Y-105150800D02*
X132005300Y-105150800D01*
X133424701Y-105150800D02*
X134545300Y-105150800D01*
X135964701Y-105150800D02*
X149274033Y-105150800D01*
X150446163Y-105150800D02*
X181158000Y-105150800D01*
X130627000Y-105354000D02*
X131768806Y-105354000D01*
X133661195Y-105354000D02*
X134308806Y-105354000D01*
X136201195Y-105354000D02*
X149189657Y-105354000D01*
X150530123Y-105354000D02*
X181158000Y-105354000D01*
X130627000Y-105557200D02*
X131633032Y-105557200D01*
X133796969Y-105557200D02*
X134173032Y-105557200D01*
X136336969Y-105557200D02*
X149027154Y-105557200D01*
X150536954Y-105557200D02*
X181158000Y-105557200D01*
X130627000Y-105760400D02*
X131539470Y-105760400D01*
X133890531Y-105760400D02*
X134079470Y-105760400D01*
X136430531Y-105760400D02*
X148823954Y-105760400D01*
X150486993Y-105760400D02*
X181158000Y-105760400D01*
X130627000Y-105963600D02*
X131499051Y-105963600D01*
X133930950Y-105963600D02*
X134039051Y-105963600D01*
X136470950Y-105963600D02*
X148620754Y-105963600D01*
X150358857Y-105963600D02*
X181158000Y-105963600D01*
X130627000Y-106166800D02*
X131469292Y-106166800D01*
X133960707Y-106166800D02*
X134009292Y-106166800D01*
X136500707Y-106166800D02*
X148417554Y-106166800D01*
X150031142Y-106166800D02*
X181158000Y-106166800D01*
X130627000Y-106370000D02*
X131509711Y-106370000D01*
X133920288Y-106370000D02*
X134049711Y-106370000D01*
X136460288Y-106370000D02*
X148214354Y-106370000D01*
X149775646Y-106370000D02*
X181158000Y-106370000D01*
X130627000Y-106573200D02*
X131550130Y-106573200D01*
X133879869Y-106573200D02*
X134090130Y-106573200D01*
X136419869Y-106573200D02*
X148011154Y-106573200D01*
X149572446Y-106573200D02*
X181158000Y-106573200D01*
X130627000Y-106776400D02*
X131668845Y-106776400D01*
X133761154Y-106776400D02*
X134208845Y-106776400D01*
X136301154Y-106776400D02*
X147807954Y-106776400D01*
X149369246Y-106776400D02*
X181158000Y-106776400D01*
X130627000Y-106979600D02*
X131804619Y-106979600D01*
X133625380Y-106979600D02*
X134344619Y-106979600D01*
X136165380Y-106979600D02*
X147604754Y-106979600D01*
X149166046Y-106979600D02*
X181158000Y-106979600D01*
X130627000Y-107182800D02*
X132085517Y-107182800D01*
X133344482Y-107182800D02*
X134625517Y-107182800D01*
X135884482Y-107182800D02*
X147401554Y-107182800D01*
X148962846Y-107182800D02*
X181158000Y-107182800D01*
X130627000Y-107386000D02*
X134584059Y-107386000D01*
X135925942Y-107386000D02*
X147198354Y-107386000D01*
X148759646Y-107386000D02*
X181158000Y-107386000D01*
X130627000Y-107589200D02*
X132157355Y-107589200D01*
X133272646Y-107589200D02*
X134278515Y-107589200D01*
X136231486Y-107589200D02*
X146995154Y-107589200D01*
X148556446Y-107589200D02*
X181158000Y-107589200D01*
X130627000Y-107792400D02*
X131853245Y-107792400D01*
X133576756Y-107792400D02*
X134093332Y-107792400D01*
X136416669Y-107792400D02*
X146791954Y-107792400D01*
X148353246Y-107792400D02*
X181158000Y-107792400D01*
X130627000Y-107995600D02*
X131700919Y-107995600D01*
X133729082Y-107995600D02*
X133949175Y-107995600D01*
X136560826Y-107995600D02*
X146588754Y-107995600D01*
X148150046Y-107995600D02*
X181158000Y-107995600D01*
X130627000Y-108198800D02*
X131565145Y-108198800D01*
X133864856Y-108198800D02*
X133865012Y-108198800D01*
X136644989Y-108198800D02*
X146385554Y-108198800D01*
X147946846Y-108198800D02*
X181158000Y-108198800D01*
X130627000Y-108402000D02*
X131519260Y-108402000D01*
X136654842Y-108402000D02*
X146182354Y-108402000D01*
X147743646Y-108402000D02*
X179872658Y-108402000D01*
X180343000Y-108402000D02*
X180597000Y-108402000D01*
X181067344Y-108402000D02*
X181158000Y-108402000D01*
X130627000Y-108605200D02*
X131478841Y-108605200D01*
X135108000Y-108605200D02*
X145979154Y-108605200D01*
X147540446Y-108605200D02*
X179395739Y-108605200D01*
X180343000Y-108605200D02*
X180597000Y-108605200D01*
X130627000Y-108808400D02*
X131489502Y-108808400D01*
X135128000Y-108808400D02*
X135382000Y-108808400D01*
X136575894Y-108808400D02*
X145775954Y-108808400D01*
X147337246Y-108808400D02*
X179152433Y-108808400D01*
X180343000Y-108808400D02*
X180597000Y-108808400D01*
X130627000Y-109011600D02*
X131529921Y-109011600D01*
X135128000Y-109011600D02*
X135382000Y-109011600D01*
X136683130Y-109011600D02*
X145572754Y-109011600D01*
X147134046Y-109011600D02*
X179040338Y-109011600D01*
X180343000Y-109011600D02*
X180597000Y-109011600D01*
X130627000Y-109214800D02*
X131600958Y-109214800D01*
X133829041Y-109214800D02*
X133887212Y-109214800D01*
X135128000Y-109214800D02*
X135382000Y-109214800D01*
X136622787Y-109214800D02*
X145369554Y-109214800D01*
X146930846Y-109214800D02*
X178933960Y-109214800D01*
X180343000Y-109214800D02*
X180597000Y-109214800D01*
X130627000Y-109418000D02*
X131736732Y-109418000D01*
X133693267Y-109418000D02*
X133971375Y-109418000D01*
X135128000Y-109418000D02*
X135382000Y-109418000D01*
X136538624Y-109418000D02*
X145166354Y-109418000D01*
X146727646Y-109418000D02*
X179037910Y-109418000D01*
X180343000Y-109418000D02*
X180597000Y-109418000D01*
X130627000Y-109621200D02*
X131933462Y-109621200D01*
X133496537Y-109621200D02*
X134142178Y-109621200D01*
X135128000Y-109621200D02*
X135382000Y-109621200D01*
X136367821Y-109621200D02*
X144963154Y-109621200D01*
X146524446Y-109621200D02*
X180617000Y-109621200D01*
X130627000Y-109824400D02*
X132163000Y-109824400D01*
X133267000Y-109824400D02*
X134327361Y-109824400D01*
X135128000Y-109824400D02*
X135382000Y-109824400D01*
X136182638Y-109824400D02*
X144759954Y-109824400D01*
X146321246Y-109824400D02*
X178960755Y-109824400D01*
X180343000Y-109824400D02*
X180597000Y-109824400D01*
X130627000Y-110027600D02*
X132163000Y-110027600D01*
X133267000Y-110027600D02*
X134698191Y-110027600D01*
X135076977Y-110027600D02*
X135433022Y-110027600D01*
X135811808Y-110027600D02*
X144556754Y-110027600D01*
X146118046Y-110027600D02*
X178992802Y-110027600D01*
X180343000Y-110027600D02*
X180597000Y-110027600D01*
X130627000Y-110230800D02*
X132163000Y-110230800D01*
X133267000Y-110230800D02*
X144353554Y-110230800D01*
X145914846Y-110230800D02*
X179099181Y-110230800D01*
X180343000Y-110230800D02*
X180597000Y-110230800D01*
X130627000Y-110434000D02*
X132163000Y-110434000D01*
X133344646Y-110434000D02*
X144150354Y-110434000D01*
X145711646Y-110434000D02*
X179287017Y-110434000D01*
X180343000Y-110434000D02*
X180597000Y-110434000D01*
X130627000Y-110637200D02*
X132173383Y-110637200D01*
X133547846Y-110637200D02*
X143947154Y-110637200D01*
X145508446Y-110637200D02*
X179582332Y-110637200D01*
X180343000Y-110637200D02*
X180597000Y-110637200D01*
X130627000Y-110840400D02*
X132234523Y-110840400D01*
X145305246Y-110840400D02*
X181158000Y-110840400D01*
X130627000Y-111043600D02*
X132392954Y-111043600D01*
X145102046Y-111043600D02*
X181158000Y-111043600D01*
X130627000Y-111246800D02*
X132596154Y-111246800D01*
X144898846Y-111246800D02*
X181158000Y-111246800D01*
X130627000Y-111450000D02*
X132799354Y-111450000D01*
X144695646Y-111450000D02*
X181158000Y-111450000D01*
X130627000Y-111653200D02*
X133023846Y-111653200D01*
X144471153Y-111653200D02*
X181158000Y-111653200D01*
X130627000Y-111856400D02*
X181158000Y-111856400D01*
X130627000Y-112059600D02*
X181158000Y-112059600D01*
X130627000Y-112262800D02*
X181158000Y-112262800D01*
X130627000Y-112466000D02*
X181158000Y-112466000D01*
X130627000Y-112669200D02*
X181158000Y-112669200D01*
X130627000Y-112872400D02*
X181158000Y-112872400D01*
X130627000Y-113075600D02*
X181158000Y-113075600D01*
X130627000Y-113278800D02*
X181158000Y-113278800D01*
X130627000Y-113482000D02*
X181158000Y-113482000D01*
X130627000Y-113685200D02*
X181158000Y-113685200D01*
X130627000Y-113888400D02*
X181158000Y-113888400D01*
X130627000Y-114091600D02*
X181158000Y-114091600D01*
X130627000Y-114294800D02*
X181158000Y-114294800D01*
X130627000Y-114498000D02*
X181158000Y-114498000D01*
X130627000Y-114701200D02*
X181158000Y-114701200D01*
X130627000Y-114904400D02*
X181158000Y-114904400D01*
X130627000Y-115107600D02*
X181158000Y-115107600D01*
X130627000Y-115310800D02*
X181158000Y-115310800D01*
X130627000Y-115514000D02*
X181158000Y-115514000D01*
X130627000Y-115717200D02*
X179429266Y-115717200D01*
X180343000Y-115717200D02*
X180597000Y-115717200D01*
X130627000Y-115920400D02*
X179185959Y-115920400D01*
X180343000Y-115920400D02*
X180597000Y-115920400D01*
X130627000Y-116123600D02*
X179054997Y-116123600D01*
X180343000Y-116123600D02*
X180597000Y-116123600D01*
X130627000Y-116326800D02*
X178948618Y-116326800D01*
X180343000Y-116326800D02*
X180597000Y-116326800D01*
X130627000Y-116530000D02*
X179018690Y-116530000D01*
X180343000Y-116530000D02*
X180597000Y-116530000D01*
X130627000Y-116733200D02*
X180617000Y-116733200D01*
X130627000Y-116936400D02*
X178979976Y-116936400D01*
X180343000Y-116936400D02*
X180597000Y-116936400D01*
X130627000Y-117139600D02*
X178978144Y-117139600D01*
X180343000Y-117139600D02*
X180597000Y-117139600D01*
X130627000Y-117342800D02*
X179084522Y-117342800D01*
X180343000Y-117342800D02*
X180597000Y-117342800D01*
X130627000Y-117546000D02*
X179253490Y-117546000D01*
X180343000Y-117546000D02*
X180597000Y-117546000D01*
X130627000Y-117749200D02*
X179496797Y-117749200D01*
X180343000Y-117749200D02*
X180597000Y-117749200D01*
X130627000Y-117952400D02*
X181158000Y-117952400D01*
X130627000Y-118155600D02*
X181158000Y-118155600D01*
X130627000Y-118358800D02*
X181158000Y-118358800D01*
X130627000Y-118562000D02*
X181158000Y-118562000D01*
X130627000Y-118765200D02*
X181158000Y-118765200D01*
X130627000Y-118968400D02*
X181158000Y-118968400D01*
X130627000Y-119171600D02*
X181158000Y-119171600D01*
X130627000Y-119374800D02*
X181158000Y-119374800D01*
X130627000Y-119578000D02*
X181158000Y-119578000D01*
X130627000Y-119781200D02*
X181158000Y-119781200D01*
X130627000Y-119984400D02*
X158633010Y-119984400D01*
X160136260Y-119984400D02*
X178978785Y-119984400D01*
X180431216Y-119984400D02*
X181158000Y-119984400D01*
X130627000Y-120187600D02*
X158347320Y-120187600D01*
X160422951Y-120187600D02*
X178674675Y-120187600D01*
X180735326Y-120187600D02*
X181158000Y-120187600D01*
X130627000Y-120390800D02*
X158143765Y-120390800D01*
X160625797Y-120390800D02*
X178474870Y-120390800D01*
X180935131Y-120390800D02*
X181158000Y-120390800D01*
X130627000Y-120594000D02*
X158003826Y-120594000D01*
X160766548Y-120594000D02*
X178339096Y-120594000D01*
X181070905Y-120594000D02*
X181158000Y-120594000D01*
X130627000Y-120797200D02*
X157919450Y-120797200D01*
X160850509Y-120797200D02*
X178213032Y-120797200D01*
X130627000Y-121000400D02*
X157835074Y-121000400D01*
X160934469Y-121000400D02*
X178172613Y-121000400D01*
X130627000Y-121203600D02*
X157808154Y-121203600D01*
X160962154Y-121203600D02*
X178132194Y-121203600D01*
X130627000Y-121406800D02*
X157807977Y-121406800D01*
X160961976Y-121406800D02*
X178102435Y-121406800D01*
X130627000Y-121610000D02*
X157807799Y-121610000D01*
X160961799Y-121610000D02*
X178142854Y-121610000D01*
X130627000Y-121813200D02*
X157857678Y-121813200D01*
X160912669Y-121813200D02*
X178183273Y-121813200D01*
X130627000Y-122016400D02*
X157941638Y-122016400D01*
X160828293Y-122016400D02*
X178239135Y-122016400D01*
X130627000Y-122219600D02*
X158025599Y-122219600D01*
X160743917Y-122219600D02*
X178374909Y-122219600D01*
X181035090Y-122219600D02*
X181158000Y-122219600D01*
X130627000Y-122422800D02*
X158197710Y-122422800D01*
X160572541Y-122422800D02*
X178510683Y-122422800D01*
X180899316Y-122422800D02*
X181158000Y-122422800D01*
X130627000Y-122626000D02*
X158400556Y-122626000D01*
X160368987Y-122626000D02*
X178754892Y-122626000D01*
X180655107Y-122626000D02*
X181158000Y-122626000D01*
X130627000Y-122829200D02*
X158762823Y-122829200D01*
X160007268Y-122829200D02*
X179059002Y-122829200D01*
X180350997Y-122829200D02*
X181158000Y-122829200D01*
X130627000Y-123032400D02*
X181158000Y-123032400D01*
X130627000Y-123235600D02*
X181158000Y-123235600D01*
X130627000Y-123438800D02*
X181158000Y-123438800D01*
X130627000Y-123642000D02*
X181158000Y-123642000D01*
X130627000Y-123845200D02*
X181158000Y-123845200D01*
X130627000Y-124048400D02*
X181158000Y-124048400D01*
X130627000Y-124251600D02*
X181158000Y-124251600D01*
X130627000Y-124454800D02*
X181158000Y-124454800D01*
X130627000Y-124658000D02*
X181158000Y-124658000D01*
X130627000Y-124861200D02*
X181158000Y-124861200D01*
X130627000Y-125064400D02*
X181158000Y-125064400D01*
X130627000Y-125267600D02*
X181158000Y-125267600D01*
X130627000Y-125470800D02*
X181158000Y-125470800D01*
X130627000Y-125674000D02*
X181158000Y-125674000D01*
X130627000Y-125877200D02*
X141836520Y-125877200D01*
X143916087Y-125877200D02*
X145043759Y-125877200D01*
X145706969Y-125877200D02*
X147543759Y-125877200D01*
X148206969Y-125877200D02*
X150043759Y-125877200D01*
X150706969Y-125877200D02*
X152543759Y-125877200D01*
X153206969Y-125877200D02*
X181158000Y-125877200D01*
X130627000Y-126080400D02*
X133840843Y-126080400D01*
X135399862Y-126080400D02*
X141643885Y-126080400D01*
X144108118Y-126080400D02*
X144619231Y-126080400D01*
X146131222Y-126080400D02*
X147119231Y-126080400D01*
X148631222Y-126080400D02*
X149619231Y-126080400D01*
X151131222Y-126080400D02*
X152119231Y-126080400D01*
X153631222Y-126080400D02*
X176385843Y-126080400D01*
X177944862Y-126080400D02*
X181158000Y-126080400D01*
X130627000Y-126283600D02*
X133349060Y-126283600D01*
X135889222Y-126283600D02*
X141615615Y-126283600D01*
X144134385Y-126283600D02*
X144415675Y-126283600D01*
X146334067Y-126283600D02*
X146915675Y-126283600D01*
X148834067Y-126283600D02*
X149415675Y-126283600D01*
X151334067Y-126283600D02*
X151915675Y-126283600D01*
X153834067Y-126283600D02*
X175894060Y-126283600D01*
X178434222Y-126283600D02*
X181158000Y-126283600D01*
X130627000Y-126486800D02*
X133091664Y-126486800D01*
X136148947Y-126486800D02*
X141615615Y-126486800D01*
X144134385Y-126486800D02*
X144271902Y-126486800D01*
X146478363Y-126486800D02*
X146771902Y-126486800D01*
X148978363Y-126486800D02*
X149271902Y-126486800D01*
X151478363Y-126486800D02*
X151771902Y-126486800D01*
X153978363Y-126486800D02*
X175636664Y-126486800D01*
X178693947Y-126486800D02*
X181158000Y-126486800D01*
X130627000Y-126690000D02*
X132888109Y-126690000D01*
X136351793Y-126690000D02*
X141615615Y-126690000D01*
X144134385Y-126690000D02*
X144187526Y-126690000D01*
X146562324Y-126690000D02*
X146687526Y-126690000D01*
X149062324Y-126690000D02*
X149187526Y-126690000D01*
X151562324Y-126690000D02*
X151687526Y-126690000D01*
X154062324Y-126690000D02*
X175433109Y-126690000D01*
X178896793Y-126690000D02*
X181158000Y-126690000D01*
X130627000Y-126893200D02*
X132684554Y-126893200D01*
X136554639Y-126893200D02*
X141615615Y-126893200D01*
X154127176Y-126893200D02*
X175229554Y-126893200D01*
X179099639Y-126893200D02*
X181158000Y-126893200D01*
X130627000Y-127096400D02*
X132538342Y-127096400D01*
X136702368Y-127096400D02*
X141615615Y-127096400D01*
X154126999Y-127096400D02*
X175083342Y-127096400D01*
X179247368Y-127096400D02*
X181158000Y-127096400D01*
X130627000Y-127299600D02*
X132453966Y-127299600D01*
X136786328Y-127299600D02*
X141615615Y-127299600D01*
X154126821Y-127299600D02*
X174998966Y-127299600D01*
X179331328Y-127299600D02*
X181158000Y-127299600D01*
X130627000Y-127502800D02*
X132369590Y-127502800D01*
X136870288Y-127502800D02*
X141615615Y-127502800D01*
X144134385Y-127502800D02*
X144188833Y-127502800D01*
X146561311Y-127502800D02*
X146688833Y-127502800D01*
X149061311Y-127502800D02*
X149188833Y-127502800D01*
X151561311Y-127502800D02*
X151688833Y-127502800D01*
X154061312Y-127502800D02*
X174914590Y-127502800D01*
X179415288Y-127502800D02*
X181158000Y-127502800D01*
X130627000Y-127706000D02*
X132285214Y-127706000D01*
X136954249Y-127706000D02*
X141615615Y-127706000D01*
X144134385Y-127706000D02*
X144272794Y-127706000D01*
X146476936Y-127706000D02*
X146772794Y-127706000D01*
X148976936Y-127706000D02*
X149272794Y-127706000D01*
X151476936Y-127706000D02*
X151772794Y-127706000D01*
X153976936Y-127706000D02*
X174830214Y-127706000D01*
X179499249Y-127706000D02*
X181158000Y-127706000D01*
X130627000Y-127909200D02*
X132211397Y-127909200D01*
X137029398Y-127909200D02*
X141615615Y-127909200D01*
X144134385Y-127909200D02*
X144418728Y-127909200D01*
X146331520Y-127909200D02*
X146918728Y-127909200D01*
X148831520Y-127909200D02*
X149418728Y-127909200D01*
X151331520Y-127909200D02*
X151918728Y-127909200D01*
X153831520Y-127909200D02*
X174756397Y-127909200D01*
X179574398Y-127909200D02*
X181158000Y-127909200D01*
X130627000Y-128112400D02*
X132211220Y-128112400D01*
X137029221Y-128112400D02*
X141643635Y-128112400D01*
X144105548Y-128112400D02*
X144621573Y-128112400D01*
X146127964Y-128112400D02*
X147121573Y-128112400D01*
X148627964Y-128112400D02*
X149621573Y-128112400D01*
X151127964Y-128112400D02*
X152121573Y-128112400D01*
X153627964Y-128112400D02*
X174756220Y-128112400D01*
X179574221Y-128112400D02*
X181158000Y-128112400D01*
X130627000Y-128315600D02*
X132211043Y-128315600D01*
X137029043Y-128315600D02*
X141838011Y-128315600D01*
X143909128Y-128315600D02*
X145049774Y-128315600D01*
X145699464Y-128315600D02*
X147549774Y-128315600D01*
X148199464Y-128315600D02*
X150049774Y-128315600D01*
X150699464Y-128315600D02*
X152549774Y-128315600D01*
X153199464Y-128315600D02*
X174756043Y-128315600D01*
X179574043Y-128315600D02*
X181158000Y-128315600D01*
X130627000Y-128518800D02*
X132210866Y-128518800D01*
X137028866Y-128518800D02*
X174755866Y-128518800D01*
X179573866Y-128518800D02*
X181158000Y-128518800D01*
X130627000Y-128722000D02*
X132210688Y-128722000D01*
X137028688Y-128722000D02*
X174755688Y-128722000D01*
X179573689Y-128722000D02*
X181158000Y-128722000D01*
X130627000Y-128925200D02*
X132244928Y-128925200D01*
X136995811Y-128925200D02*
X174789928Y-128925200D01*
X179540811Y-128925200D02*
X181158000Y-128925200D01*
X130627000Y-129128400D02*
X132328889Y-129128400D01*
X136911435Y-129128400D02*
X174873889Y-129128400D01*
X179456435Y-129128400D02*
X181158000Y-129128400D01*
X130627000Y-129331600D02*
X132412849Y-129331600D01*
X136827059Y-129331600D02*
X174957849Y-129331600D01*
X179372059Y-129331600D02*
X181158000Y-129331600D01*
X130627000Y-129534800D02*
X132496809Y-129534800D01*
X136742683Y-129534800D02*
X175041809Y-129534800D01*
X179287683Y-129534800D02*
X181158000Y-129534800D01*
X130627000Y-129738000D02*
X132586734Y-129738000D01*
X136654419Y-129738000D02*
X175131734Y-129738000D01*
X179199419Y-129738000D02*
X181158000Y-129738000D01*
X130627000Y-129941200D02*
X132789579Y-129941200D01*
X136450864Y-129941200D02*
X175334579Y-129941200D01*
X178995864Y-129941200D02*
X181158000Y-129941200D01*
X130627000Y-130144400D02*
X132992425Y-130144400D01*
X136247309Y-130144400D02*
X175537425Y-130144400D01*
X178792309Y-130144400D02*
X181158000Y-130144400D01*
X130627000Y-130347600D02*
X133195270Y-130347600D01*
X136043754Y-130347600D02*
X175740270Y-130347600D01*
X178588754Y-130347600D02*
X181158000Y-130347600D01*
X130627000Y-130550800D02*
X133602201Y-130550800D01*
X135638272Y-130550800D02*
X176147201Y-130550800D01*
X178183272Y-130550800D02*
X181158000Y-130550800D01*
X130627000Y-130754000D02*
X134091561Y-130754000D01*
X135146490Y-130754000D02*
X176636561Y-130754000D01*
X177691490Y-130754000D02*
X181158000Y-130754000D01*
X130627000Y-130957200D02*
X181158000Y-130957200D01*
X130627000Y-131160400D02*
X181158000Y-131160400D01*
X130627000Y-131363600D02*
X181158000Y-131363600D01*
X130627000Y-131566800D02*
X181158000Y-131566800D01*
X130627000Y-131770000D02*
X181158000Y-131770000D01*
X130627000Y-131973200D02*
X181158000Y-131973200D01*
X130627000Y-132176400D02*
X181158000Y-132176400D01*
X181158000Y-108430353D02*
X180997000Y-108380000D01*
X180597000Y-108380000D01*
X180597000Y-109438000D01*
X180617000Y-109438000D01*
X180617000Y-109692000D01*
X180597000Y-109692000D01*
X180597000Y-110750000D01*
X180997000Y-110750000D01*
X181158000Y-110699647D01*
X181158000Y-115570353D01*
X180997000Y-115520000D01*
X180597000Y-115520000D01*
X180597000Y-116578000D01*
X180617000Y-116578000D01*
X180617000Y-116832000D01*
X180597000Y-116832000D01*
X180597000Y-117890000D01*
X180997000Y-117890000D01*
X181158000Y-117839647D01*
X181158000Y-120724347D01*
X180851002Y-120264893D01*
X180339387Y-119923042D01*
X179735895Y-119803000D01*
X179674105Y-119803000D01*
X179070613Y-119923042D01*
X178558998Y-120264893D01*
X178217147Y-120776508D01*
X178097105Y-121380000D01*
X178217147Y-121983492D01*
X178558998Y-122495107D01*
X179070613Y-122836958D01*
X179674105Y-122957000D01*
X179735895Y-122957000D01*
X180339387Y-122836958D01*
X180851002Y-122495107D01*
X181158000Y-122035653D01*
X181158000Y-132263000D01*
X130627000Y-132263000D01*
X130627000Y-128842077D01*
X132210583Y-128842077D01*
X132576558Y-129727806D01*
X133253629Y-130406060D01*
X134138718Y-130773581D01*
X135097077Y-130774417D01*
X135982806Y-130408442D01*
X136661060Y-129731371D01*
X137028581Y-128846282D01*
X137028584Y-128842077D01*
X174755583Y-128842077D01*
X175121558Y-129727806D01*
X175798629Y-130406060D01*
X176683718Y-130773581D01*
X177642077Y-130774417D01*
X178527806Y-130408442D01*
X179206060Y-129731371D01*
X179573581Y-128846282D01*
X179574417Y-127887923D01*
X179208442Y-127002194D01*
X178531371Y-126323940D01*
X177646282Y-125956419D01*
X176687923Y-125955583D01*
X175802194Y-126321558D01*
X175123940Y-126998629D01*
X174756419Y-127883718D01*
X174755583Y-128842077D01*
X137028584Y-128842077D01*
X137029417Y-127887923D01*
X136663442Y-127002194D01*
X135986371Y-126323940D01*
X135736056Y-126220000D01*
X141615615Y-126220000D01*
X141615615Y-127970000D01*
X141641903Y-128109708D01*
X141724470Y-128238020D01*
X141850453Y-128324101D01*
X142000000Y-128354385D01*
X143750000Y-128354385D01*
X143889708Y-128328097D01*
X144018020Y-128245530D01*
X144104101Y-128119547D01*
X144134385Y-127970000D01*
X144134385Y-127371025D01*
X144312987Y-127803274D01*
X144664873Y-128155775D01*
X145124869Y-128346782D01*
X145622946Y-128347217D01*
X146083274Y-128157013D01*
X146435775Y-127805127D01*
X146625230Y-127348868D01*
X146812987Y-127803274D01*
X147164873Y-128155775D01*
X147624869Y-128346782D01*
X148122946Y-128347217D01*
X148583274Y-128157013D01*
X148935775Y-127805127D01*
X149125230Y-127348868D01*
X149312987Y-127803274D01*
X149664873Y-128155775D01*
X150124869Y-128346782D01*
X150622946Y-128347217D01*
X151083274Y-128157013D01*
X151435775Y-127805127D01*
X151625230Y-127348868D01*
X151812987Y-127803274D01*
X152164873Y-128155775D01*
X152624869Y-128346782D01*
X153122946Y-128347217D01*
X153583274Y-128157013D01*
X153935775Y-127805127D01*
X154126782Y-127345131D01*
X154127217Y-126847054D01*
X153937013Y-126386726D01*
X153585127Y-126034225D01*
X153125131Y-125843218D01*
X152627054Y-125842783D01*
X152166726Y-126032987D01*
X151814225Y-126384873D01*
X151624770Y-126841132D01*
X151437013Y-126386726D01*
X151085127Y-126034225D01*
X150625131Y-125843218D01*
X150127054Y-125842783D01*
X149666726Y-126032987D01*
X149314225Y-126384873D01*
X149124770Y-126841132D01*
X148937013Y-126386726D01*
X148585127Y-126034225D01*
X148125131Y-125843218D01*
X147627054Y-125842783D01*
X147166726Y-126032987D01*
X146814225Y-126384873D01*
X146624770Y-126841132D01*
X146437013Y-126386726D01*
X146085127Y-126034225D01*
X145625131Y-125843218D01*
X145127054Y-125842783D01*
X144666726Y-126032987D01*
X144314225Y-126384873D01*
X144134385Y-126817976D01*
X144134385Y-126220000D01*
X144108097Y-126080292D01*
X144025530Y-125951980D01*
X143899547Y-125865899D01*
X143750000Y-125835615D01*
X142000000Y-125835615D01*
X141860292Y-125861903D01*
X141731980Y-125944470D01*
X141645899Y-126070453D01*
X141615615Y-126220000D01*
X135736056Y-126220000D01*
X135101282Y-125956419D01*
X134142923Y-125955583D01*
X133257194Y-126321558D01*
X132578940Y-126998629D01*
X132211419Y-127883718D01*
X132210583Y-128842077D01*
X130627000Y-128842077D01*
X130627000Y-121692308D01*
X157807727Y-121692308D01*
X158047305Y-122272132D01*
X158490535Y-122716136D01*
X159069939Y-122956725D01*
X159697308Y-122957273D01*
X160277132Y-122717695D01*
X160721136Y-122274465D01*
X160961725Y-121695061D01*
X160962273Y-121067692D01*
X160722695Y-120487868D01*
X160279465Y-120043864D01*
X159700061Y-119803275D01*
X159072692Y-119802727D01*
X158492868Y-120042305D01*
X158048864Y-120485535D01*
X157808275Y-121064939D01*
X157807727Y-121692308D01*
X130627000Y-121692308D01*
X130627000Y-117014744D01*
X178926197Y-117014744D01*
X178926602Y-117041146D01*
X179142276Y-117453118D01*
X179499187Y-117751196D01*
X179943000Y-117890000D01*
X180343000Y-117890000D01*
X180343000Y-116832000D01*
X179051639Y-116832000D01*
X178926197Y-117014744D01*
X130627000Y-117014744D01*
X130627000Y-116395256D01*
X178926197Y-116395256D01*
X179051639Y-116578000D01*
X180343000Y-116578000D01*
X180343000Y-115520000D01*
X179943000Y-115520000D01*
X179499187Y-115658804D01*
X179142276Y-115956882D01*
X178926602Y-116368854D01*
X178926197Y-116395256D01*
X130627000Y-116395256D01*
X130627000Y-108680000D01*
X131463962Y-108680000D01*
X131557362Y-109149553D01*
X131823342Y-109547620D01*
X132163000Y-109774572D01*
X132163000Y-110585000D01*
X132205018Y-110796242D01*
X132324677Y-110975323D01*
X132959677Y-111610323D01*
X133138758Y-111729982D01*
X133350000Y-111772000D01*
X144145000Y-111772000D01*
X144356242Y-111729982D01*
X144535323Y-111610323D01*
X146270902Y-109874744D01*
X178926197Y-109874744D01*
X178926602Y-109901146D01*
X179142276Y-110313118D01*
X179499187Y-110611196D01*
X179943000Y-110750000D01*
X180343000Y-110750000D01*
X180343000Y-109692000D01*
X179051639Y-109692000D01*
X178926197Y-109874744D01*
X146270902Y-109874744D01*
X146890390Y-109255256D01*
X178926197Y-109255256D01*
X179051639Y-109438000D01*
X180343000Y-109438000D01*
X180343000Y-108380000D01*
X179943000Y-108380000D01*
X179499187Y-108518804D01*
X179142276Y-108816882D01*
X178926602Y-109228854D01*
X178926197Y-109255256D01*
X146890390Y-109255256D01*
X149963556Y-106182090D01*
X149994073Y-106182117D01*
X150242989Y-106079267D01*
X150433598Y-105888990D01*
X150536882Y-105640254D01*
X150537117Y-105370927D01*
X150434267Y-105122011D01*
X150243990Y-104931402D01*
X149995254Y-104828118D01*
X149725927Y-104827883D01*
X149477011Y-104930733D01*
X149286402Y-105121010D01*
X149183118Y-105369746D01*
X149183090Y-105401264D01*
X143916354Y-110668000D01*
X133578646Y-110668000D01*
X133267000Y-110356354D01*
X133267000Y-109774572D01*
X133606658Y-109547620D01*
X133864952Y-109161056D01*
X133983355Y-109446924D01*
X134373642Y-109875183D01*
X134898108Y-110121486D01*
X135128000Y-110000819D01*
X135128000Y-108807000D01*
X135382000Y-108807000D01*
X135382000Y-110000819D01*
X135611892Y-110121486D01*
X136136358Y-109875183D01*
X136526645Y-109446924D01*
X136696476Y-109036890D01*
X136575155Y-108807000D01*
X135382000Y-108807000D01*
X135128000Y-108807000D01*
X135108000Y-108807000D01*
X135108000Y-108553000D01*
X135128000Y-108553000D01*
X135128000Y-108533000D01*
X135382000Y-108533000D01*
X135382000Y-108553000D01*
X136575155Y-108553000D01*
X136696476Y-108323110D01*
X136526645Y-107913076D01*
X136136358Y-107484817D01*
X135705046Y-107282262D01*
X135748591Y-107273600D01*
X136146658Y-107007620D01*
X136412638Y-106609553D01*
X136506038Y-106140000D01*
X136412638Y-105670447D01*
X136146658Y-105272380D01*
X135748591Y-105006400D01*
X135279038Y-104913000D01*
X135230962Y-104913000D01*
X134761409Y-105006400D01*
X134363342Y-105272380D01*
X134097362Y-105670447D01*
X134003962Y-106140000D01*
X134097362Y-106609553D01*
X134363342Y-107007620D01*
X134761409Y-107273600D01*
X134804954Y-107282262D01*
X134373642Y-107484817D01*
X133983355Y-107913076D01*
X133864952Y-108198944D01*
X133606658Y-107812380D01*
X133208591Y-107546400D01*
X132739038Y-107453000D01*
X132690962Y-107453000D01*
X132221409Y-107546400D01*
X131823342Y-107812380D01*
X131557362Y-108210447D01*
X131463962Y-108680000D01*
X130627000Y-108680000D01*
X130627000Y-106140000D01*
X131463962Y-106140000D01*
X131557362Y-106609553D01*
X131823342Y-107007620D01*
X132221409Y-107273600D01*
X132690962Y-107367000D01*
X132739038Y-107367000D01*
X133208591Y-107273600D01*
X133606658Y-107007620D01*
X133872638Y-106609553D01*
X133966038Y-106140000D01*
X133872638Y-105670447D01*
X133606658Y-105272380D01*
X133208591Y-105006400D01*
X132739038Y-104913000D01*
X132690962Y-104913000D01*
X132221409Y-105006400D01*
X131823342Y-105272380D01*
X131557362Y-105670447D01*
X131463962Y-106140000D01*
X130627000Y-106140000D01*
X130627000Y-102750000D01*
X131480615Y-102750000D01*
X131480615Y-104450000D01*
X131506903Y-104589708D01*
X131589470Y-104718020D01*
X131715453Y-104804101D01*
X131865000Y-104834385D01*
X133565000Y-104834385D01*
X133704708Y-104808097D01*
X133833020Y-104725530D01*
X133919101Y-104599547D01*
X133949385Y-104450000D01*
X133949385Y-103600000D01*
X134003962Y-103600000D01*
X134097362Y-104069553D01*
X134363342Y-104467620D01*
X134761409Y-104733600D01*
X135230962Y-104827000D01*
X135279038Y-104827000D01*
X135748591Y-104733600D01*
X136146658Y-104467620D01*
X136412638Y-104069553D01*
X136506038Y-103600000D01*
X136412638Y-103130447D01*
X136146658Y-102732380D01*
X135748591Y-102466400D01*
X135279038Y-102373000D01*
X135230962Y-102373000D01*
X134761409Y-102466400D01*
X134363342Y-102732380D01*
X134097362Y-103130447D01*
X134003962Y-103600000D01*
X133949385Y-103600000D01*
X133949385Y-102750000D01*
X133923097Y-102610292D01*
X133840530Y-102481980D01*
X133714547Y-102395899D01*
X133565000Y-102365615D01*
X131865000Y-102365615D01*
X131725292Y-102391903D01*
X131596980Y-102474470D01*
X131510899Y-102600453D01*
X131480615Y-102750000D01*
X130627000Y-102750000D01*
X130627000Y-97727077D01*
X132210583Y-97727077D01*
X132576558Y-98612806D01*
X133253629Y-99291060D01*
X134138718Y-99658581D01*
X135097077Y-99659417D01*
X135982806Y-99293442D01*
X136661060Y-98616371D01*
X137028581Y-97731282D01*
X137028689Y-97606892D01*
X165563514Y-97606892D01*
X165809817Y-98131358D01*
X166238076Y-98521645D01*
X166648110Y-98691476D01*
X166878000Y-98570155D01*
X166878000Y-97377000D01*
X165684181Y-97377000D01*
X165563514Y-97606892D01*
X137028689Y-97606892D01*
X137029312Y-96893108D01*
X165563514Y-96893108D01*
X165684181Y-97123000D01*
X166878000Y-97123000D01*
X166878000Y-95929845D01*
X167132000Y-95929845D01*
X167132000Y-97123000D01*
X167152000Y-97123000D01*
X167152000Y-97377000D01*
X167132000Y-97377000D01*
X167132000Y-98570155D01*
X167361890Y-98691476D01*
X167771924Y-98521645D01*
X168200183Y-98131358D01*
X168310615Y-97896209D01*
X168310615Y-98100000D01*
X168336903Y-98239708D01*
X168419470Y-98368020D01*
X168545453Y-98454101D01*
X168695000Y-98484385D01*
X170395000Y-98484385D01*
X170534708Y-98458097D01*
X170663020Y-98375530D01*
X170749101Y-98249547D01*
X170779385Y-98100000D01*
X170779385Y-97092077D01*
X174120583Y-97092077D01*
X174486558Y-97977806D01*
X175163629Y-98656060D01*
X176048718Y-99023581D01*
X177007077Y-99024417D01*
X177892806Y-98658442D01*
X178571060Y-97981371D01*
X178938581Y-97096282D01*
X178939417Y-96137923D01*
X178573442Y-95252194D01*
X177896371Y-94573940D01*
X177011282Y-94206419D01*
X176052923Y-94205583D01*
X175167194Y-94571558D01*
X174488940Y-95248629D01*
X174121419Y-96133718D01*
X174120583Y-97092077D01*
X170779385Y-97092077D01*
X170779385Y-96400000D01*
X170753097Y-96260292D01*
X170670530Y-96131980D01*
X170544547Y-96045899D01*
X170395000Y-96015615D01*
X168695000Y-96015615D01*
X168555292Y-96041903D01*
X168426980Y-96124470D01*
X168340899Y-96250453D01*
X168310615Y-96400000D01*
X168310615Y-96603791D01*
X168200183Y-96368642D01*
X167771924Y-95978355D01*
X167361890Y-95808524D01*
X167132000Y-95929845D01*
X166878000Y-95929845D01*
X166648110Y-95808524D01*
X166238076Y-95978355D01*
X165809817Y-96368642D01*
X165563514Y-96893108D01*
X137029312Y-96893108D01*
X137029417Y-96772923D01*
X136663442Y-95887194D01*
X135986371Y-95208940D01*
X135101282Y-94841419D01*
X134142923Y-94840583D01*
X133257194Y-95206558D01*
X132578940Y-95883629D01*
X132211419Y-96768718D01*
X132210583Y-97727077D01*
X130627000Y-97727077D01*
X130627000Y-93162000D01*
X181158000Y-93162000D01*
X181158000Y-108430353D01*
M02*
