M48
; DRILL file {KiCad 5.1.2-f72e74a~84~ubuntu16.04.1} date Mon 27 May 2019 09:50:01 PM CEST
; FORMAT={-:-/ absolute / inch / decimal}
; #@! TF.CreationDate,2019-05-27T21:50:01+02:00
; #@! TF.GenerationSoftware,Kicad,Pcbnew,5.1.2-f72e74a~84~ubuntu16.04.1
; #@! TF.FileFunction,Plated,1,2,PTH
FMAT,2
INCH
T1C0.0157
T2C0.0177
T3C0.0374
T4C0.0394
T5C0.0472
%
G90
G05
T1
X5.3Y-4.54
X5.3Y-4.875
X5.35Y-4.16
X5.47Y-4.92
X5.67Y-4.56
X5.7Y-4.375
X5.89Y-3.87
X5.89Y-4.68
X5.92Y-4.24
X6.04Y-4.09
X6.23Y-3.89
T3
X5.9363Y-5.06
X6.0347Y-5.06
X6.1331Y-5.06
X6.2316Y-5.06
X6.33Y-5.06
T4
X6.28Y-4.78
X6.38Y-4.78
X6.48Y-4.78
X6.56Y-5.09
X6.66Y-5.09
T5
X6.68Y-4.8
X6.98Y-4.8
T2
G00X7.0794Y-4.3348
M15
G01X7.1109Y-4.3348
M16
G05
G00X7.0794Y-4.6159
M15
G01X7.1109Y-4.6159
M16
G05
T0
M30
