G04 #@! TF.GenerationSoftware,KiCad,Pcbnew,5.1.2-f72e74a~84~ubuntu16.04.1*
G04 #@! TF.CreationDate,2019-06-09T21:55:35+02:00*
G04 #@! TF.ProjectId,CameraMotor,43616d65-7261-44d6-9f74-6f722e6b6963,rev?*
G04 #@! TF.SameCoordinates,Original*
G04 #@! TF.FileFunction,Soldermask,Top*
G04 #@! TF.FilePolarity,Negative*
%FSLAX46Y46*%
G04 Gerber Fmt 4.6, Leading zero omitted, Abs format (unit mm)*
G04 Created by KiCad (PCBNEW 5.1.2-f72e74a~84~ubuntu16.04.1) date 2019-06-09 21:55:35*
%MOMM*%
%LPD*%
G04 APERTURE LIST*
%ADD10R,1.900000X1.000000*%
%ADD11R,1.950000X1.700000*%
%ADD12O,2.100000X2.100000*%
%ADD13R,2.100000X2.100000*%
%ADD14C,3.400000*%
%ADD15R,2.900000X1.400000*%
%ADD16R,1.400000X2.200000*%
%ADD17C,0.100000*%
%ADD18C,2.100000*%
%ADD19O,2.100000X2.350000*%
%ADD20R,4.600000X2.600000*%
%ADD21O,2.300000X1.500000*%
%ADD22R,2.300000X1.800000*%
%ADD23R,1.780000X0.850000*%
%ADD24C,1.825000*%
%ADD25C,1.650000*%
%ADD26R,2.400000X4.200000*%
%ADD27R,2.400000X1.900000*%
%ADD28C,2.000000*%
%ADD29C,2.800000*%
%ADD30O,2.800000X2.800000*%
G04 APERTURE END LIST*
D10*
X137762000Y-121031000D03*
X137762000Y-122301000D03*
X137762000Y-123571000D03*
X137762000Y-124841000D03*
X137762000Y-126111000D03*
X137762000Y-127381000D03*
X137762000Y-128651000D03*
X137762000Y-129921000D03*
X143162000Y-129921000D03*
X143162000Y-128651000D03*
X143162000Y-127381000D03*
X143162000Y-126111000D03*
X143162000Y-124841000D03*
X143162000Y-123571000D03*
X143162000Y-122301000D03*
X143162000Y-121031000D03*
D11*
X167043000Y-108640000D03*
X167043000Y-104140000D03*
X159093000Y-104140000D03*
X159093000Y-108640000D03*
X159182000Y-116586000D03*
X159182000Y-112086000D03*
X167132000Y-112086000D03*
X167132000Y-116586000D03*
D12*
X166370000Y-128270000D03*
X168910000Y-128270000D03*
D13*
X171450000Y-128270000D03*
D14*
X177546000Y-128778000D03*
X177546000Y-96774000D03*
D15*
X132100000Y-101910000D03*
X132100000Y-103910000D03*
X132100000Y-105910000D03*
X132100000Y-107910000D03*
X132100000Y-109910000D03*
X132100000Y-111910000D03*
X132100000Y-113910000D03*
X132100000Y-115910000D03*
D16*
X134700000Y-117410000D03*
X136700000Y-117410000D03*
X138700000Y-117410000D03*
X140700000Y-117410000D03*
X142700000Y-117410000D03*
X144700000Y-117410000D03*
D15*
X147300000Y-115910000D03*
X147300000Y-113910000D03*
X147300000Y-111910000D03*
X147300000Y-109910000D03*
X147300000Y-107910000D03*
X147300000Y-105910000D03*
X147300000Y-103910000D03*
X147300000Y-101910000D03*
D17*
G36*
X161553447Y-127350487D02*
G01*
X161583425Y-127354934D01*
X161612824Y-127362298D01*
X161641358Y-127372508D01*
X161668755Y-127385465D01*
X161694750Y-127401046D01*
X161719092Y-127419100D01*
X161741548Y-127439452D01*
X161761900Y-127461908D01*
X161779954Y-127486250D01*
X161795535Y-127512245D01*
X161808492Y-127539642D01*
X161818702Y-127568176D01*
X161826066Y-127597575D01*
X161830513Y-127627553D01*
X161832000Y-127657823D01*
X161832000Y-129390177D01*
X161830513Y-129420447D01*
X161826066Y-129450425D01*
X161818702Y-129479824D01*
X161808492Y-129508358D01*
X161795535Y-129535755D01*
X161779954Y-129561750D01*
X161761900Y-129586092D01*
X161741548Y-129608548D01*
X161719092Y-129628900D01*
X161694750Y-129646954D01*
X161668755Y-129662535D01*
X161641358Y-129675492D01*
X161612824Y-129685702D01*
X161583425Y-129693066D01*
X161553447Y-129697513D01*
X161523177Y-129699000D01*
X160040823Y-129699000D01*
X160010553Y-129697513D01*
X159980575Y-129693066D01*
X159951176Y-129685702D01*
X159922642Y-129675492D01*
X159895245Y-129662535D01*
X159869250Y-129646954D01*
X159844908Y-129628900D01*
X159822452Y-129608548D01*
X159802100Y-129586092D01*
X159784046Y-129561750D01*
X159768465Y-129535755D01*
X159755508Y-129508358D01*
X159745298Y-129479824D01*
X159737934Y-129450425D01*
X159733487Y-129420447D01*
X159732000Y-129390177D01*
X159732000Y-127657823D01*
X159733487Y-127627553D01*
X159737934Y-127597575D01*
X159745298Y-127568176D01*
X159755508Y-127539642D01*
X159768465Y-127512245D01*
X159784046Y-127486250D01*
X159802100Y-127461908D01*
X159822452Y-127439452D01*
X159844908Y-127419100D01*
X159869250Y-127401046D01*
X159895245Y-127385465D01*
X159922642Y-127372508D01*
X159951176Y-127362298D01*
X159980575Y-127354934D01*
X160010553Y-127350487D01*
X160040823Y-127349000D01*
X161523177Y-127349000D01*
X161553447Y-127350487D01*
X161553447Y-127350487D01*
G37*
D18*
X160782000Y-128524000D03*
D19*
X158282000Y-128524000D03*
X155782000Y-128524000D03*
X153282000Y-128524000D03*
X150782000Y-128524000D03*
D20*
X172085000Y-111205000D03*
X172085000Y-116205000D03*
D21*
X180216000Y-117245000D03*
D22*
X180216000Y-112715000D03*
D21*
X180216000Y-110105000D03*
D23*
X177546000Y-112375000D03*
X177546000Y-113025000D03*
X177546000Y-113675000D03*
X177546000Y-114325000D03*
X177546000Y-114985000D03*
D22*
X180216000Y-114625000D03*
D13*
X159512000Y-121412000D03*
D12*
X162052000Y-121412000D03*
X164592000Y-121412000D03*
D17*
G36*
X152588707Y-108400542D02*
G01*
X152619787Y-108405152D01*
X152650266Y-108412787D01*
X152679850Y-108423372D01*
X152708254Y-108436806D01*
X152735204Y-108452959D01*
X152760442Y-108471677D01*
X152783723Y-108492777D01*
X152804823Y-108516058D01*
X152823541Y-108541296D01*
X152839694Y-108568246D01*
X152853128Y-108596650D01*
X152863713Y-108626234D01*
X152871348Y-108656713D01*
X152875958Y-108687793D01*
X152877500Y-108719176D01*
X152877500Y-110228824D01*
X152875958Y-110260207D01*
X152871348Y-110291287D01*
X152863713Y-110321766D01*
X152853128Y-110351350D01*
X152839694Y-110379754D01*
X152823541Y-110406704D01*
X152804823Y-110431942D01*
X152783723Y-110455223D01*
X152760442Y-110476323D01*
X152735204Y-110495041D01*
X152708254Y-110511194D01*
X152679850Y-110524628D01*
X152650266Y-110535213D01*
X152619787Y-110542848D01*
X152588707Y-110547458D01*
X152557324Y-110549000D01*
X151372676Y-110549000D01*
X151341293Y-110547458D01*
X151310213Y-110542848D01*
X151279734Y-110535213D01*
X151250150Y-110524628D01*
X151221746Y-110511194D01*
X151194796Y-110495041D01*
X151169558Y-110476323D01*
X151146277Y-110455223D01*
X151125177Y-110431942D01*
X151106459Y-110406704D01*
X151090306Y-110379754D01*
X151076872Y-110351350D01*
X151066287Y-110321766D01*
X151058652Y-110291287D01*
X151054042Y-110260207D01*
X151052500Y-110228824D01*
X151052500Y-108719176D01*
X151054042Y-108687793D01*
X151058652Y-108656713D01*
X151066287Y-108626234D01*
X151076872Y-108596650D01*
X151090306Y-108568246D01*
X151106459Y-108541296D01*
X151125177Y-108516058D01*
X151146277Y-108492777D01*
X151169558Y-108471677D01*
X151194796Y-108452959D01*
X151221746Y-108436806D01*
X151250150Y-108423372D01*
X151279734Y-108412787D01*
X151310213Y-108405152D01*
X151341293Y-108400542D01*
X151372676Y-108399000D01*
X152557324Y-108399000D01*
X152588707Y-108400542D01*
X152588707Y-108400542D01*
G37*
D24*
X151965000Y-109474000D03*
D17*
G36*
X155563707Y-108400542D02*
G01*
X155594787Y-108405152D01*
X155625266Y-108412787D01*
X155654850Y-108423372D01*
X155683254Y-108436806D01*
X155710204Y-108452959D01*
X155735442Y-108471677D01*
X155758723Y-108492777D01*
X155779823Y-108516058D01*
X155798541Y-108541296D01*
X155814694Y-108568246D01*
X155828128Y-108596650D01*
X155838713Y-108626234D01*
X155846348Y-108656713D01*
X155850958Y-108687793D01*
X155852500Y-108719176D01*
X155852500Y-110228824D01*
X155850958Y-110260207D01*
X155846348Y-110291287D01*
X155838713Y-110321766D01*
X155828128Y-110351350D01*
X155814694Y-110379754D01*
X155798541Y-110406704D01*
X155779823Y-110431942D01*
X155758723Y-110455223D01*
X155735442Y-110476323D01*
X155710204Y-110495041D01*
X155683254Y-110511194D01*
X155654850Y-110524628D01*
X155625266Y-110535213D01*
X155594787Y-110542848D01*
X155563707Y-110547458D01*
X155532324Y-110549000D01*
X154347676Y-110549000D01*
X154316293Y-110547458D01*
X154285213Y-110542848D01*
X154254734Y-110535213D01*
X154225150Y-110524628D01*
X154196746Y-110511194D01*
X154169796Y-110495041D01*
X154144558Y-110476323D01*
X154121277Y-110455223D01*
X154100177Y-110431942D01*
X154081459Y-110406704D01*
X154065306Y-110379754D01*
X154051872Y-110351350D01*
X154041287Y-110321766D01*
X154033652Y-110291287D01*
X154029042Y-110260207D01*
X154027500Y-110228824D01*
X154027500Y-108719176D01*
X154029042Y-108687793D01*
X154033652Y-108656713D01*
X154041287Y-108626234D01*
X154051872Y-108596650D01*
X154065306Y-108568246D01*
X154081459Y-108541296D01*
X154100177Y-108516058D01*
X154121277Y-108492777D01*
X154144558Y-108471677D01*
X154169796Y-108452959D01*
X154196746Y-108436806D01*
X154225150Y-108423372D01*
X154254734Y-108412787D01*
X154285213Y-108405152D01*
X154316293Y-108400542D01*
X154347676Y-108399000D01*
X155532324Y-108399000D01*
X155563707Y-108400542D01*
X155563707Y-108400542D01*
G37*
D24*
X154940000Y-109474000D03*
D17*
G36*
X155563707Y-104590542D02*
G01*
X155594787Y-104595152D01*
X155625266Y-104602787D01*
X155654850Y-104613372D01*
X155683254Y-104626806D01*
X155710204Y-104642959D01*
X155735442Y-104661677D01*
X155758723Y-104682777D01*
X155779823Y-104706058D01*
X155798541Y-104731296D01*
X155814694Y-104758246D01*
X155828128Y-104786650D01*
X155838713Y-104816234D01*
X155846348Y-104846713D01*
X155850958Y-104877793D01*
X155852500Y-104909176D01*
X155852500Y-106418824D01*
X155850958Y-106450207D01*
X155846348Y-106481287D01*
X155838713Y-106511766D01*
X155828128Y-106541350D01*
X155814694Y-106569754D01*
X155798541Y-106596704D01*
X155779823Y-106621942D01*
X155758723Y-106645223D01*
X155735442Y-106666323D01*
X155710204Y-106685041D01*
X155683254Y-106701194D01*
X155654850Y-106714628D01*
X155625266Y-106725213D01*
X155594787Y-106732848D01*
X155563707Y-106737458D01*
X155532324Y-106739000D01*
X154347676Y-106739000D01*
X154316293Y-106737458D01*
X154285213Y-106732848D01*
X154254734Y-106725213D01*
X154225150Y-106714628D01*
X154196746Y-106701194D01*
X154169796Y-106685041D01*
X154144558Y-106666323D01*
X154121277Y-106645223D01*
X154100177Y-106621942D01*
X154081459Y-106596704D01*
X154065306Y-106569754D01*
X154051872Y-106541350D01*
X154041287Y-106511766D01*
X154033652Y-106481287D01*
X154029042Y-106450207D01*
X154027500Y-106418824D01*
X154027500Y-104909176D01*
X154029042Y-104877793D01*
X154033652Y-104846713D01*
X154041287Y-104816234D01*
X154051872Y-104786650D01*
X154065306Y-104758246D01*
X154081459Y-104731296D01*
X154100177Y-104706058D01*
X154121277Y-104682777D01*
X154144558Y-104661677D01*
X154169796Y-104642959D01*
X154196746Y-104626806D01*
X154225150Y-104613372D01*
X154254734Y-104602787D01*
X154285213Y-104595152D01*
X154316293Y-104590542D01*
X154347676Y-104589000D01*
X155532324Y-104589000D01*
X155563707Y-104590542D01*
X155563707Y-104590542D01*
G37*
D24*
X154940000Y-105664000D03*
D17*
G36*
X152588707Y-104590542D02*
G01*
X152619787Y-104595152D01*
X152650266Y-104602787D01*
X152679850Y-104613372D01*
X152708254Y-104626806D01*
X152735204Y-104642959D01*
X152760442Y-104661677D01*
X152783723Y-104682777D01*
X152804823Y-104706058D01*
X152823541Y-104731296D01*
X152839694Y-104758246D01*
X152853128Y-104786650D01*
X152863713Y-104816234D01*
X152871348Y-104846713D01*
X152875958Y-104877793D01*
X152877500Y-104909176D01*
X152877500Y-106418824D01*
X152875958Y-106450207D01*
X152871348Y-106481287D01*
X152863713Y-106511766D01*
X152853128Y-106541350D01*
X152839694Y-106569754D01*
X152823541Y-106596704D01*
X152804823Y-106621942D01*
X152783723Y-106645223D01*
X152760442Y-106666323D01*
X152735204Y-106685041D01*
X152708254Y-106701194D01*
X152679850Y-106714628D01*
X152650266Y-106725213D01*
X152619787Y-106732848D01*
X152588707Y-106737458D01*
X152557324Y-106739000D01*
X151372676Y-106739000D01*
X151341293Y-106737458D01*
X151310213Y-106732848D01*
X151279734Y-106725213D01*
X151250150Y-106714628D01*
X151221746Y-106701194D01*
X151194796Y-106685041D01*
X151169558Y-106666323D01*
X151146277Y-106645223D01*
X151125177Y-106621942D01*
X151106459Y-106596704D01*
X151090306Y-106569754D01*
X151076872Y-106541350D01*
X151066287Y-106511766D01*
X151058652Y-106481287D01*
X151054042Y-106450207D01*
X151052500Y-106418824D01*
X151052500Y-104909176D01*
X151054042Y-104877793D01*
X151058652Y-104846713D01*
X151066287Y-104816234D01*
X151076872Y-104786650D01*
X151090306Y-104758246D01*
X151106459Y-104731296D01*
X151125177Y-104706058D01*
X151146277Y-104682777D01*
X151169558Y-104661677D01*
X151194796Y-104642959D01*
X151221746Y-104626806D01*
X151250150Y-104613372D01*
X151279734Y-104602787D01*
X151310213Y-104595152D01*
X151341293Y-104590542D01*
X151372676Y-104589000D01*
X152557324Y-104589000D01*
X152588707Y-104590542D01*
X152588707Y-104590542D01*
G37*
D24*
X151965000Y-105664000D03*
D17*
G36*
X152588707Y-100780542D02*
G01*
X152619787Y-100785152D01*
X152650266Y-100792787D01*
X152679850Y-100803372D01*
X152708254Y-100816806D01*
X152735204Y-100832959D01*
X152760442Y-100851677D01*
X152783723Y-100872777D01*
X152804823Y-100896058D01*
X152823541Y-100921296D01*
X152839694Y-100948246D01*
X152853128Y-100976650D01*
X152863713Y-101006234D01*
X152871348Y-101036713D01*
X152875958Y-101067793D01*
X152877500Y-101099176D01*
X152877500Y-102608824D01*
X152875958Y-102640207D01*
X152871348Y-102671287D01*
X152863713Y-102701766D01*
X152853128Y-102731350D01*
X152839694Y-102759754D01*
X152823541Y-102786704D01*
X152804823Y-102811942D01*
X152783723Y-102835223D01*
X152760442Y-102856323D01*
X152735204Y-102875041D01*
X152708254Y-102891194D01*
X152679850Y-102904628D01*
X152650266Y-102915213D01*
X152619787Y-102922848D01*
X152588707Y-102927458D01*
X152557324Y-102929000D01*
X151372676Y-102929000D01*
X151341293Y-102927458D01*
X151310213Y-102922848D01*
X151279734Y-102915213D01*
X151250150Y-102904628D01*
X151221746Y-102891194D01*
X151194796Y-102875041D01*
X151169558Y-102856323D01*
X151146277Y-102835223D01*
X151125177Y-102811942D01*
X151106459Y-102786704D01*
X151090306Y-102759754D01*
X151076872Y-102731350D01*
X151066287Y-102701766D01*
X151058652Y-102671287D01*
X151054042Y-102640207D01*
X151052500Y-102608824D01*
X151052500Y-101099176D01*
X151054042Y-101067793D01*
X151058652Y-101036713D01*
X151066287Y-101006234D01*
X151076872Y-100976650D01*
X151090306Y-100948246D01*
X151106459Y-100921296D01*
X151125177Y-100896058D01*
X151146277Y-100872777D01*
X151169558Y-100851677D01*
X151194796Y-100832959D01*
X151221746Y-100816806D01*
X151250150Y-100803372D01*
X151279734Y-100792787D01*
X151310213Y-100785152D01*
X151341293Y-100780542D01*
X151372676Y-100779000D01*
X152557324Y-100779000D01*
X152588707Y-100780542D01*
X152588707Y-100780542D01*
G37*
D24*
X151965000Y-101854000D03*
D17*
G36*
X155563707Y-100780542D02*
G01*
X155594787Y-100785152D01*
X155625266Y-100792787D01*
X155654850Y-100803372D01*
X155683254Y-100816806D01*
X155710204Y-100832959D01*
X155735442Y-100851677D01*
X155758723Y-100872777D01*
X155779823Y-100896058D01*
X155798541Y-100921296D01*
X155814694Y-100948246D01*
X155828128Y-100976650D01*
X155838713Y-101006234D01*
X155846348Y-101036713D01*
X155850958Y-101067793D01*
X155852500Y-101099176D01*
X155852500Y-102608824D01*
X155850958Y-102640207D01*
X155846348Y-102671287D01*
X155838713Y-102701766D01*
X155828128Y-102731350D01*
X155814694Y-102759754D01*
X155798541Y-102786704D01*
X155779823Y-102811942D01*
X155758723Y-102835223D01*
X155735442Y-102856323D01*
X155710204Y-102875041D01*
X155683254Y-102891194D01*
X155654850Y-102904628D01*
X155625266Y-102915213D01*
X155594787Y-102922848D01*
X155563707Y-102927458D01*
X155532324Y-102929000D01*
X154347676Y-102929000D01*
X154316293Y-102927458D01*
X154285213Y-102922848D01*
X154254734Y-102915213D01*
X154225150Y-102904628D01*
X154196746Y-102891194D01*
X154169796Y-102875041D01*
X154144558Y-102856323D01*
X154121277Y-102835223D01*
X154100177Y-102811942D01*
X154081459Y-102786704D01*
X154065306Y-102759754D01*
X154051872Y-102731350D01*
X154041287Y-102701766D01*
X154033652Y-102671287D01*
X154029042Y-102640207D01*
X154027500Y-102608824D01*
X154027500Y-101099176D01*
X154029042Y-101067793D01*
X154033652Y-101036713D01*
X154041287Y-101006234D01*
X154051872Y-100976650D01*
X154065306Y-100948246D01*
X154081459Y-100921296D01*
X154100177Y-100896058D01*
X154121277Y-100872777D01*
X154144558Y-100851677D01*
X154169796Y-100832959D01*
X154196746Y-100816806D01*
X154225150Y-100803372D01*
X154254734Y-100792787D01*
X154285213Y-100785152D01*
X154316293Y-100780542D01*
X154347676Y-100779000D01*
X155532324Y-100779000D01*
X155563707Y-100780542D01*
X155563707Y-100780542D01*
G37*
D24*
X154940000Y-101854000D03*
D17*
G36*
X155563707Y-93668542D02*
G01*
X155594787Y-93673152D01*
X155625266Y-93680787D01*
X155654850Y-93691372D01*
X155683254Y-93704806D01*
X155710204Y-93720959D01*
X155735442Y-93739677D01*
X155758723Y-93760777D01*
X155779823Y-93784058D01*
X155798541Y-93809296D01*
X155814694Y-93836246D01*
X155828128Y-93864650D01*
X155838713Y-93894234D01*
X155846348Y-93924713D01*
X155850958Y-93955793D01*
X155852500Y-93987176D01*
X155852500Y-95496824D01*
X155850958Y-95528207D01*
X155846348Y-95559287D01*
X155838713Y-95589766D01*
X155828128Y-95619350D01*
X155814694Y-95647754D01*
X155798541Y-95674704D01*
X155779823Y-95699942D01*
X155758723Y-95723223D01*
X155735442Y-95744323D01*
X155710204Y-95763041D01*
X155683254Y-95779194D01*
X155654850Y-95792628D01*
X155625266Y-95803213D01*
X155594787Y-95810848D01*
X155563707Y-95815458D01*
X155532324Y-95817000D01*
X154347676Y-95817000D01*
X154316293Y-95815458D01*
X154285213Y-95810848D01*
X154254734Y-95803213D01*
X154225150Y-95792628D01*
X154196746Y-95779194D01*
X154169796Y-95763041D01*
X154144558Y-95744323D01*
X154121277Y-95723223D01*
X154100177Y-95699942D01*
X154081459Y-95674704D01*
X154065306Y-95647754D01*
X154051872Y-95619350D01*
X154041287Y-95589766D01*
X154033652Y-95559287D01*
X154029042Y-95528207D01*
X154027500Y-95496824D01*
X154027500Y-93987176D01*
X154029042Y-93955793D01*
X154033652Y-93924713D01*
X154041287Y-93894234D01*
X154051872Y-93864650D01*
X154065306Y-93836246D01*
X154081459Y-93809296D01*
X154100177Y-93784058D01*
X154121277Y-93760777D01*
X154144558Y-93739677D01*
X154169796Y-93720959D01*
X154196746Y-93704806D01*
X154225150Y-93691372D01*
X154254734Y-93680787D01*
X154285213Y-93673152D01*
X154316293Y-93668542D01*
X154347676Y-93667000D01*
X155532324Y-93667000D01*
X155563707Y-93668542D01*
X155563707Y-93668542D01*
G37*
D24*
X154940000Y-94742000D03*
D17*
G36*
X152588707Y-93668542D02*
G01*
X152619787Y-93673152D01*
X152650266Y-93680787D01*
X152679850Y-93691372D01*
X152708254Y-93704806D01*
X152735204Y-93720959D01*
X152760442Y-93739677D01*
X152783723Y-93760777D01*
X152804823Y-93784058D01*
X152823541Y-93809296D01*
X152839694Y-93836246D01*
X152853128Y-93864650D01*
X152863713Y-93894234D01*
X152871348Y-93924713D01*
X152875958Y-93955793D01*
X152877500Y-93987176D01*
X152877500Y-95496824D01*
X152875958Y-95528207D01*
X152871348Y-95559287D01*
X152863713Y-95589766D01*
X152853128Y-95619350D01*
X152839694Y-95647754D01*
X152823541Y-95674704D01*
X152804823Y-95699942D01*
X152783723Y-95723223D01*
X152760442Y-95744323D01*
X152735204Y-95763041D01*
X152708254Y-95779194D01*
X152679850Y-95792628D01*
X152650266Y-95803213D01*
X152619787Y-95810848D01*
X152588707Y-95815458D01*
X152557324Y-95817000D01*
X151372676Y-95817000D01*
X151341293Y-95815458D01*
X151310213Y-95810848D01*
X151279734Y-95803213D01*
X151250150Y-95792628D01*
X151221746Y-95779194D01*
X151194796Y-95763041D01*
X151169558Y-95744323D01*
X151146277Y-95723223D01*
X151125177Y-95699942D01*
X151106459Y-95674704D01*
X151090306Y-95647754D01*
X151076872Y-95619350D01*
X151066287Y-95589766D01*
X151058652Y-95559287D01*
X151054042Y-95528207D01*
X151052500Y-95496824D01*
X151052500Y-93987176D01*
X151054042Y-93955793D01*
X151058652Y-93924713D01*
X151066287Y-93894234D01*
X151076872Y-93864650D01*
X151090306Y-93836246D01*
X151106459Y-93809296D01*
X151125177Y-93784058D01*
X151146277Y-93760777D01*
X151169558Y-93739677D01*
X151194796Y-93720959D01*
X151221746Y-93704806D01*
X151250150Y-93691372D01*
X151279734Y-93680787D01*
X151310213Y-93673152D01*
X151341293Y-93668542D01*
X151372676Y-93667000D01*
X152557324Y-93667000D01*
X152588707Y-93668542D01*
X152588707Y-93668542D01*
G37*
D24*
X151965000Y-94742000D03*
D17*
G36*
X152588707Y-97351542D02*
G01*
X152619787Y-97356152D01*
X152650266Y-97363787D01*
X152679850Y-97374372D01*
X152708254Y-97387806D01*
X152735204Y-97403959D01*
X152760442Y-97422677D01*
X152783723Y-97443777D01*
X152804823Y-97467058D01*
X152823541Y-97492296D01*
X152839694Y-97519246D01*
X152853128Y-97547650D01*
X152863713Y-97577234D01*
X152871348Y-97607713D01*
X152875958Y-97638793D01*
X152877500Y-97670176D01*
X152877500Y-99179824D01*
X152875958Y-99211207D01*
X152871348Y-99242287D01*
X152863713Y-99272766D01*
X152853128Y-99302350D01*
X152839694Y-99330754D01*
X152823541Y-99357704D01*
X152804823Y-99382942D01*
X152783723Y-99406223D01*
X152760442Y-99427323D01*
X152735204Y-99446041D01*
X152708254Y-99462194D01*
X152679850Y-99475628D01*
X152650266Y-99486213D01*
X152619787Y-99493848D01*
X152588707Y-99498458D01*
X152557324Y-99500000D01*
X151372676Y-99500000D01*
X151341293Y-99498458D01*
X151310213Y-99493848D01*
X151279734Y-99486213D01*
X151250150Y-99475628D01*
X151221746Y-99462194D01*
X151194796Y-99446041D01*
X151169558Y-99427323D01*
X151146277Y-99406223D01*
X151125177Y-99382942D01*
X151106459Y-99357704D01*
X151090306Y-99330754D01*
X151076872Y-99302350D01*
X151066287Y-99272766D01*
X151058652Y-99242287D01*
X151054042Y-99211207D01*
X151052500Y-99179824D01*
X151052500Y-97670176D01*
X151054042Y-97638793D01*
X151058652Y-97607713D01*
X151066287Y-97577234D01*
X151076872Y-97547650D01*
X151090306Y-97519246D01*
X151106459Y-97492296D01*
X151125177Y-97467058D01*
X151146277Y-97443777D01*
X151169558Y-97422677D01*
X151194796Y-97403959D01*
X151221746Y-97387806D01*
X151250150Y-97374372D01*
X151279734Y-97363787D01*
X151310213Y-97356152D01*
X151341293Y-97351542D01*
X151372676Y-97350000D01*
X152557324Y-97350000D01*
X152588707Y-97351542D01*
X152588707Y-97351542D01*
G37*
D24*
X151965000Y-98425000D03*
D17*
G36*
X155563707Y-97351542D02*
G01*
X155594787Y-97356152D01*
X155625266Y-97363787D01*
X155654850Y-97374372D01*
X155683254Y-97387806D01*
X155710204Y-97403959D01*
X155735442Y-97422677D01*
X155758723Y-97443777D01*
X155779823Y-97467058D01*
X155798541Y-97492296D01*
X155814694Y-97519246D01*
X155828128Y-97547650D01*
X155838713Y-97577234D01*
X155846348Y-97607713D01*
X155850958Y-97638793D01*
X155852500Y-97670176D01*
X155852500Y-99179824D01*
X155850958Y-99211207D01*
X155846348Y-99242287D01*
X155838713Y-99272766D01*
X155828128Y-99302350D01*
X155814694Y-99330754D01*
X155798541Y-99357704D01*
X155779823Y-99382942D01*
X155758723Y-99406223D01*
X155735442Y-99427323D01*
X155710204Y-99446041D01*
X155683254Y-99462194D01*
X155654850Y-99475628D01*
X155625266Y-99486213D01*
X155594787Y-99493848D01*
X155563707Y-99498458D01*
X155532324Y-99500000D01*
X154347676Y-99500000D01*
X154316293Y-99498458D01*
X154285213Y-99493848D01*
X154254734Y-99486213D01*
X154225150Y-99475628D01*
X154196746Y-99462194D01*
X154169796Y-99446041D01*
X154144558Y-99427323D01*
X154121277Y-99406223D01*
X154100177Y-99382942D01*
X154081459Y-99357704D01*
X154065306Y-99330754D01*
X154051872Y-99302350D01*
X154041287Y-99272766D01*
X154033652Y-99242287D01*
X154029042Y-99211207D01*
X154027500Y-99179824D01*
X154027500Y-97670176D01*
X154029042Y-97638793D01*
X154033652Y-97607713D01*
X154041287Y-97577234D01*
X154051872Y-97547650D01*
X154065306Y-97519246D01*
X154081459Y-97492296D01*
X154100177Y-97467058D01*
X154121277Y-97443777D01*
X154144558Y-97422677D01*
X154169796Y-97403959D01*
X154196746Y-97387806D01*
X154225150Y-97374372D01*
X154254734Y-97363787D01*
X154285213Y-97356152D01*
X154316293Y-97351542D01*
X154347676Y-97350000D01*
X155532324Y-97350000D01*
X155563707Y-97351542D01*
X155563707Y-97351542D01*
G37*
D24*
X154940000Y-98425000D03*
D17*
G36*
X152334707Y-111702542D02*
G01*
X152365787Y-111707152D01*
X152396266Y-111714787D01*
X152425850Y-111725372D01*
X152454254Y-111738806D01*
X152481204Y-111754959D01*
X152506442Y-111773677D01*
X152529723Y-111794777D01*
X152550823Y-111818058D01*
X152569541Y-111843296D01*
X152585694Y-111870246D01*
X152599128Y-111898650D01*
X152609713Y-111928234D01*
X152617348Y-111958713D01*
X152621958Y-111989793D01*
X152623500Y-112021176D01*
X152623500Y-113530824D01*
X152621958Y-113562207D01*
X152617348Y-113593287D01*
X152609713Y-113623766D01*
X152599128Y-113653350D01*
X152585694Y-113681754D01*
X152569541Y-113708704D01*
X152550823Y-113733942D01*
X152529723Y-113757223D01*
X152506442Y-113778323D01*
X152481204Y-113797041D01*
X152454254Y-113813194D01*
X152425850Y-113826628D01*
X152396266Y-113837213D01*
X152365787Y-113844848D01*
X152334707Y-113849458D01*
X152303324Y-113851000D01*
X151118676Y-113851000D01*
X151087293Y-113849458D01*
X151056213Y-113844848D01*
X151025734Y-113837213D01*
X150996150Y-113826628D01*
X150967746Y-113813194D01*
X150940796Y-113797041D01*
X150915558Y-113778323D01*
X150892277Y-113757223D01*
X150871177Y-113733942D01*
X150852459Y-113708704D01*
X150836306Y-113681754D01*
X150822872Y-113653350D01*
X150812287Y-113623766D01*
X150804652Y-113593287D01*
X150800042Y-113562207D01*
X150798500Y-113530824D01*
X150798500Y-112021176D01*
X150800042Y-111989793D01*
X150804652Y-111958713D01*
X150812287Y-111928234D01*
X150822872Y-111898650D01*
X150836306Y-111870246D01*
X150852459Y-111843296D01*
X150871177Y-111818058D01*
X150892277Y-111794777D01*
X150915558Y-111773677D01*
X150940796Y-111754959D01*
X150967746Y-111738806D01*
X150996150Y-111725372D01*
X151025734Y-111714787D01*
X151056213Y-111707152D01*
X151087293Y-111702542D01*
X151118676Y-111701000D01*
X152303324Y-111701000D01*
X152334707Y-111702542D01*
X152334707Y-111702542D01*
G37*
D24*
X151711000Y-112776000D03*
D17*
G36*
X155309707Y-111702542D02*
G01*
X155340787Y-111707152D01*
X155371266Y-111714787D01*
X155400850Y-111725372D01*
X155429254Y-111738806D01*
X155456204Y-111754959D01*
X155481442Y-111773677D01*
X155504723Y-111794777D01*
X155525823Y-111818058D01*
X155544541Y-111843296D01*
X155560694Y-111870246D01*
X155574128Y-111898650D01*
X155584713Y-111928234D01*
X155592348Y-111958713D01*
X155596958Y-111989793D01*
X155598500Y-112021176D01*
X155598500Y-113530824D01*
X155596958Y-113562207D01*
X155592348Y-113593287D01*
X155584713Y-113623766D01*
X155574128Y-113653350D01*
X155560694Y-113681754D01*
X155544541Y-113708704D01*
X155525823Y-113733942D01*
X155504723Y-113757223D01*
X155481442Y-113778323D01*
X155456204Y-113797041D01*
X155429254Y-113813194D01*
X155400850Y-113826628D01*
X155371266Y-113837213D01*
X155340787Y-113844848D01*
X155309707Y-113849458D01*
X155278324Y-113851000D01*
X154093676Y-113851000D01*
X154062293Y-113849458D01*
X154031213Y-113844848D01*
X154000734Y-113837213D01*
X153971150Y-113826628D01*
X153942746Y-113813194D01*
X153915796Y-113797041D01*
X153890558Y-113778323D01*
X153867277Y-113757223D01*
X153846177Y-113733942D01*
X153827459Y-113708704D01*
X153811306Y-113681754D01*
X153797872Y-113653350D01*
X153787287Y-113623766D01*
X153779652Y-113593287D01*
X153775042Y-113562207D01*
X153773500Y-113530824D01*
X153773500Y-112021176D01*
X153775042Y-111989793D01*
X153779652Y-111958713D01*
X153787287Y-111928234D01*
X153797872Y-111898650D01*
X153811306Y-111870246D01*
X153827459Y-111843296D01*
X153846177Y-111818058D01*
X153867277Y-111794777D01*
X153890558Y-111773677D01*
X153915796Y-111754959D01*
X153942746Y-111738806D01*
X153971150Y-111725372D01*
X154000734Y-111714787D01*
X154031213Y-111707152D01*
X154062293Y-111702542D01*
X154093676Y-111701000D01*
X155278324Y-111701000D01*
X155309707Y-111702542D01*
X155309707Y-111702542D01*
G37*
D24*
X154686000Y-112776000D03*
D17*
G36*
X133619346Y-120328589D02*
G01*
X133651380Y-120333341D01*
X133682794Y-120341210D01*
X133713286Y-120352120D01*
X133742561Y-120365966D01*
X133770338Y-120382615D01*
X133796350Y-120401907D01*
X133820345Y-120423655D01*
X133842093Y-120447650D01*
X133861385Y-120473662D01*
X133878034Y-120501439D01*
X133891880Y-120530714D01*
X133902790Y-120561206D01*
X133910659Y-120592620D01*
X133915411Y-120624654D01*
X133917000Y-120657000D01*
X133917000Y-121647000D01*
X133915411Y-121679346D01*
X133910659Y-121711380D01*
X133902790Y-121742794D01*
X133891880Y-121773286D01*
X133878034Y-121802561D01*
X133861385Y-121830338D01*
X133842093Y-121856350D01*
X133820345Y-121880345D01*
X133796350Y-121902093D01*
X133770338Y-121921385D01*
X133742561Y-121938034D01*
X133713286Y-121951880D01*
X133682794Y-121962790D01*
X133651380Y-121970659D01*
X133619346Y-121975411D01*
X133587000Y-121977000D01*
X132097000Y-121977000D01*
X132064654Y-121975411D01*
X132032620Y-121970659D01*
X132001206Y-121962790D01*
X131970714Y-121951880D01*
X131941439Y-121938034D01*
X131913662Y-121921385D01*
X131887650Y-121902093D01*
X131863655Y-121880345D01*
X131841907Y-121856350D01*
X131822615Y-121830338D01*
X131805966Y-121802561D01*
X131792120Y-121773286D01*
X131781210Y-121742794D01*
X131773341Y-121711380D01*
X131768589Y-121679346D01*
X131767000Y-121647000D01*
X131767000Y-120657000D01*
X131768589Y-120624654D01*
X131773341Y-120592620D01*
X131781210Y-120561206D01*
X131792120Y-120530714D01*
X131805966Y-120501439D01*
X131822615Y-120473662D01*
X131841907Y-120447650D01*
X131863655Y-120423655D01*
X131887650Y-120401907D01*
X131913662Y-120382615D01*
X131941439Y-120365966D01*
X131970714Y-120352120D01*
X132001206Y-120341210D01*
X132032620Y-120333341D01*
X132064654Y-120328589D01*
X132097000Y-120327000D01*
X133587000Y-120327000D01*
X133619346Y-120328589D01*
X133619346Y-120328589D01*
G37*
D25*
X132842000Y-121152000D03*
D17*
G36*
X133619346Y-123128589D02*
G01*
X133651380Y-123133341D01*
X133682794Y-123141210D01*
X133713286Y-123152120D01*
X133742561Y-123165966D01*
X133770338Y-123182615D01*
X133796350Y-123201907D01*
X133820345Y-123223655D01*
X133842093Y-123247650D01*
X133861385Y-123273662D01*
X133878034Y-123301439D01*
X133891880Y-123330714D01*
X133902790Y-123361206D01*
X133910659Y-123392620D01*
X133915411Y-123424654D01*
X133917000Y-123457000D01*
X133917000Y-124447000D01*
X133915411Y-124479346D01*
X133910659Y-124511380D01*
X133902790Y-124542794D01*
X133891880Y-124573286D01*
X133878034Y-124602561D01*
X133861385Y-124630338D01*
X133842093Y-124656350D01*
X133820345Y-124680345D01*
X133796350Y-124702093D01*
X133770338Y-124721385D01*
X133742561Y-124738034D01*
X133713286Y-124751880D01*
X133682794Y-124762790D01*
X133651380Y-124770659D01*
X133619346Y-124775411D01*
X133587000Y-124777000D01*
X132097000Y-124777000D01*
X132064654Y-124775411D01*
X132032620Y-124770659D01*
X132001206Y-124762790D01*
X131970714Y-124751880D01*
X131941439Y-124738034D01*
X131913662Y-124721385D01*
X131887650Y-124702093D01*
X131863655Y-124680345D01*
X131841907Y-124656350D01*
X131822615Y-124630338D01*
X131805966Y-124602561D01*
X131792120Y-124573286D01*
X131781210Y-124542794D01*
X131773341Y-124511380D01*
X131768589Y-124479346D01*
X131767000Y-124447000D01*
X131767000Y-123457000D01*
X131768589Y-123424654D01*
X131773341Y-123392620D01*
X131781210Y-123361206D01*
X131792120Y-123330714D01*
X131805966Y-123301439D01*
X131822615Y-123273662D01*
X131841907Y-123247650D01*
X131863655Y-123223655D01*
X131887650Y-123201907D01*
X131913662Y-123182615D01*
X131941439Y-123165966D01*
X131970714Y-123152120D01*
X132001206Y-123141210D01*
X132032620Y-123133341D01*
X132064654Y-123128589D01*
X132097000Y-123127000D01*
X133587000Y-123127000D01*
X133619346Y-123128589D01*
X133619346Y-123128589D01*
G37*
D25*
X132842000Y-123952000D03*
D26*
X177800000Y-104140000D03*
D27*
X171500000Y-104140000D03*
X171500000Y-106440000D03*
X171500000Y-101840000D03*
D17*
G36*
X162770130Y-93383505D02*
G01*
X162800466Y-93388005D01*
X162830214Y-93395456D01*
X162859089Y-93405788D01*
X162886811Y-93418900D01*
X162913116Y-93434666D01*
X162937748Y-93452934D01*
X162960471Y-93473529D01*
X162981066Y-93496252D01*
X162999334Y-93520884D01*
X163015100Y-93547189D01*
X163028212Y-93574911D01*
X163038544Y-93603786D01*
X163045995Y-93633534D01*
X163050495Y-93663870D01*
X163052000Y-93694500D01*
X163052000Y-96469500D01*
X163050495Y-96500130D01*
X163045995Y-96530466D01*
X163038544Y-96560214D01*
X163028212Y-96589089D01*
X163015100Y-96616811D01*
X162999334Y-96643116D01*
X162981066Y-96667748D01*
X162960471Y-96690471D01*
X162937748Y-96711066D01*
X162913116Y-96729334D01*
X162886811Y-96745100D01*
X162859089Y-96758212D01*
X162830214Y-96768544D01*
X162800466Y-96775995D01*
X162770130Y-96780495D01*
X162739500Y-96782000D01*
X161364500Y-96782000D01*
X161333870Y-96780495D01*
X161303534Y-96775995D01*
X161273786Y-96768544D01*
X161244911Y-96758212D01*
X161217189Y-96745100D01*
X161190884Y-96729334D01*
X161166252Y-96711066D01*
X161143529Y-96690471D01*
X161122934Y-96667748D01*
X161104666Y-96643116D01*
X161088900Y-96616811D01*
X161075788Y-96589089D01*
X161065456Y-96560214D01*
X161058005Y-96530466D01*
X161053505Y-96500130D01*
X161052000Y-96469500D01*
X161052000Y-93694500D01*
X161053505Y-93663870D01*
X161058005Y-93633534D01*
X161065456Y-93603786D01*
X161075788Y-93574911D01*
X161088900Y-93547189D01*
X161104666Y-93520884D01*
X161122934Y-93496252D01*
X161143529Y-93473529D01*
X161166252Y-93452934D01*
X161190884Y-93434666D01*
X161217189Y-93418900D01*
X161244911Y-93405788D01*
X161273786Y-93395456D01*
X161303534Y-93388005D01*
X161333870Y-93383505D01*
X161364500Y-93382000D01*
X162739500Y-93382000D01*
X162770130Y-93383505D01*
X162770130Y-93383505D01*
G37*
D28*
X162052000Y-95082000D03*
D17*
G36*
X162770130Y-97783505D02*
G01*
X162800466Y-97788005D01*
X162830214Y-97795456D01*
X162859089Y-97805788D01*
X162886811Y-97818900D01*
X162913116Y-97834666D01*
X162937748Y-97852934D01*
X162960471Y-97873529D01*
X162981066Y-97896252D01*
X162999334Y-97920884D01*
X163015100Y-97947189D01*
X163028212Y-97974911D01*
X163038544Y-98003786D01*
X163045995Y-98033534D01*
X163050495Y-98063870D01*
X163052000Y-98094500D01*
X163052000Y-100869500D01*
X163050495Y-100900130D01*
X163045995Y-100930466D01*
X163038544Y-100960214D01*
X163028212Y-100989089D01*
X163015100Y-101016811D01*
X162999334Y-101043116D01*
X162981066Y-101067748D01*
X162960471Y-101090471D01*
X162937748Y-101111066D01*
X162913116Y-101129334D01*
X162886811Y-101145100D01*
X162859089Y-101158212D01*
X162830214Y-101168544D01*
X162800466Y-101175995D01*
X162770130Y-101180495D01*
X162739500Y-101182000D01*
X161364500Y-101182000D01*
X161333870Y-101180495D01*
X161303534Y-101175995D01*
X161273786Y-101168544D01*
X161244911Y-101158212D01*
X161217189Y-101145100D01*
X161190884Y-101129334D01*
X161166252Y-101111066D01*
X161143529Y-101090471D01*
X161122934Y-101067748D01*
X161104666Y-101043116D01*
X161088900Y-101016811D01*
X161075788Y-100989089D01*
X161065456Y-100960214D01*
X161058005Y-100930466D01*
X161053505Y-100900130D01*
X161052000Y-100869500D01*
X161052000Y-98094500D01*
X161053505Y-98063870D01*
X161058005Y-98033534D01*
X161065456Y-98003786D01*
X161075788Y-97974911D01*
X161088900Y-97947189D01*
X161104666Y-97920884D01*
X161122934Y-97896252D01*
X161143529Y-97873529D01*
X161166252Y-97852934D01*
X161190884Y-97834666D01*
X161217189Y-97818900D01*
X161244911Y-97805788D01*
X161273786Y-97795456D01*
X161303534Y-97788005D01*
X161333870Y-97783505D01*
X161364500Y-97782000D01*
X162739500Y-97782000D01*
X162770130Y-97783505D01*
X162770130Y-97783505D01*
G37*
D28*
X162052000Y-99482000D03*
D17*
G36*
X169120130Y-97951505D02*
G01*
X169150466Y-97956005D01*
X169180214Y-97963456D01*
X169209089Y-97973788D01*
X169236811Y-97986900D01*
X169263116Y-98002666D01*
X169287748Y-98020934D01*
X169310471Y-98041529D01*
X169331066Y-98064252D01*
X169349334Y-98088884D01*
X169365100Y-98115189D01*
X169378212Y-98142911D01*
X169388544Y-98171786D01*
X169395995Y-98201534D01*
X169400495Y-98231870D01*
X169402000Y-98262500D01*
X169402000Y-101037500D01*
X169400495Y-101068130D01*
X169395995Y-101098466D01*
X169388544Y-101128214D01*
X169378212Y-101157089D01*
X169365100Y-101184811D01*
X169349334Y-101211116D01*
X169331066Y-101235748D01*
X169310471Y-101258471D01*
X169287748Y-101279066D01*
X169263116Y-101297334D01*
X169236811Y-101313100D01*
X169209089Y-101326212D01*
X169180214Y-101336544D01*
X169150466Y-101343995D01*
X169120130Y-101348495D01*
X169089500Y-101350000D01*
X167714500Y-101350000D01*
X167683870Y-101348495D01*
X167653534Y-101343995D01*
X167623786Y-101336544D01*
X167594911Y-101326212D01*
X167567189Y-101313100D01*
X167540884Y-101297334D01*
X167516252Y-101279066D01*
X167493529Y-101258471D01*
X167472934Y-101235748D01*
X167454666Y-101211116D01*
X167438900Y-101184811D01*
X167425788Y-101157089D01*
X167415456Y-101128214D01*
X167408005Y-101098466D01*
X167403505Y-101068130D01*
X167402000Y-101037500D01*
X167402000Y-98262500D01*
X167403505Y-98231870D01*
X167408005Y-98201534D01*
X167415456Y-98171786D01*
X167425788Y-98142911D01*
X167438900Y-98115189D01*
X167454666Y-98088884D01*
X167472934Y-98064252D01*
X167493529Y-98041529D01*
X167516252Y-98020934D01*
X167540884Y-98002666D01*
X167567189Y-97986900D01*
X167594911Y-97973788D01*
X167623786Y-97963456D01*
X167653534Y-97956005D01*
X167683870Y-97951505D01*
X167714500Y-97950000D01*
X169089500Y-97950000D01*
X169120130Y-97951505D01*
X169120130Y-97951505D01*
G37*
D28*
X168402000Y-99650000D03*
D17*
G36*
X169120130Y-93551505D02*
G01*
X169150466Y-93556005D01*
X169180214Y-93563456D01*
X169209089Y-93573788D01*
X169236811Y-93586900D01*
X169263116Y-93602666D01*
X169287748Y-93620934D01*
X169310471Y-93641529D01*
X169331066Y-93664252D01*
X169349334Y-93688884D01*
X169365100Y-93715189D01*
X169378212Y-93742911D01*
X169388544Y-93771786D01*
X169395995Y-93801534D01*
X169400495Y-93831870D01*
X169402000Y-93862500D01*
X169402000Y-96637500D01*
X169400495Y-96668130D01*
X169395995Y-96698466D01*
X169388544Y-96728214D01*
X169378212Y-96757089D01*
X169365100Y-96784811D01*
X169349334Y-96811116D01*
X169331066Y-96835748D01*
X169310471Y-96858471D01*
X169287748Y-96879066D01*
X169263116Y-96897334D01*
X169236811Y-96913100D01*
X169209089Y-96926212D01*
X169180214Y-96936544D01*
X169150466Y-96943995D01*
X169120130Y-96948495D01*
X169089500Y-96950000D01*
X167714500Y-96950000D01*
X167683870Y-96948495D01*
X167653534Y-96943995D01*
X167623786Y-96936544D01*
X167594911Y-96926212D01*
X167567189Y-96913100D01*
X167540884Y-96897334D01*
X167516252Y-96879066D01*
X167493529Y-96858471D01*
X167472934Y-96835748D01*
X167454666Y-96811116D01*
X167438900Y-96784811D01*
X167425788Y-96757089D01*
X167415456Y-96728214D01*
X167408005Y-96698466D01*
X167403505Y-96668130D01*
X167402000Y-96637500D01*
X167402000Y-93862500D01*
X167403505Y-93831870D01*
X167408005Y-93801534D01*
X167415456Y-93771786D01*
X167425788Y-93742911D01*
X167438900Y-93715189D01*
X167454666Y-93688884D01*
X167472934Y-93664252D01*
X167493529Y-93641529D01*
X167516252Y-93620934D01*
X167540884Y-93602666D01*
X167567189Y-93586900D01*
X167594911Y-93573788D01*
X167623786Y-93563456D01*
X167653534Y-93556005D01*
X167683870Y-93551505D01*
X167714500Y-93550000D01*
X169089500Y-93550000D01*
X169120130Y-93551505D01*
X169120130Y-93551505D01*
G37*
D28*
X168402000Y-95250000D03*
D29*
X177292000Y-121920000D03*
D30*
X169672000Y-121920000D03*
M02*
